<svg width="33" height="33" viewBox="0 0 33 33" fill="#000" xmlns="http://www.w3.org/2000/svg">
<path fill-rule="evenodd" clip-rule="evenodd" d="M10.3125 23.7188C10.3125 23.4452 10.4211 23.1829 10.6145 22.9895C10.8079 22.7961 11.0702 22.6875 11.3438 22.6875H29.9062C30.1798 22.6875 30.4421 22.7961 30.6355 22.9895C30.8289 23.1829 30.9375 23.4452 30.9375 23.7188C30.9375 23.9923 30.8289 24.2546 30.6355 24.448C30.4421 24.6414 30.1798 24.75 29.9062 24.75H11.3438C11.0702 24.75 10.8079 24.6414 10.6145 24.448C10.4211 24.2546 10.3125 23.9923 10.3125 23.7188ZM10.3125 15.4688C10.3125 15.1952 10.4211 14.9329 10.6145 14.7395C10.8079 14.5461 11.0702 14.4375 11.3438 14.4375H29.9062C30.1798 14.4375 30.4421 14.5461 30.6355 14.7395C30.8289 14.9329 30.9375 15.1952 30.9375 15.4688C30.9375 15.7423 30.8289 16.0046 30.6355 16.198C30.4421 16.3914 30.1798 16.5 29.9062 16.5H11.3438C11.0702 16.5 10.8079 16.3914 10.6145 16.198C10.4211 16.0046 10.3125 15.7423 10.3125 15.4688ZM10.3125 7.21875C10.3125 6.94525 10.4211 6.68294 10.6145 6.48955C10.8079 6.29615 11.0702 6.1875 11.3438 6.1875H29.9062C30.1798 6.1875 30.4421 6.29615 30.6355 6.48955C30.8289 6.68294 30.9375 6.94525 30.9375 7.21875C30.9375 7.49225 30.8289 7.75456 30.6355 7.94795C30.4421 8.14135 30.1798 8.25 29.9062 8.25H11.3438C11.0702 8.25 10.8079 8.14135 10.6145 7.94795C10.4211 7.75456 10.3125 7.49225 10.3125 7.21875Z" fill="#000"/>
<path d="M4.62412 4.52515C4.65921 4.41142 4.72981 4.31192 4.82557 4.24125C4.92134 4.17058 5.03723 4.13245 5.15624 4.13245C5.27526 4.13245 5.39115 4.17058 5.48691 4.24125C5.58268 4.31192 5.65328 4.41142 5.68837 4.52515L6.02249 5.61827C6.09468 5.85546 6.31124 6.0184 6.55462 6.0184H7.69106C8.22524 6.0184 8.45418 6.70521 8.02931 7.03521L7.06406 7.7839C6.97284 7.85523 6.90546 7.9526 6.87083 8.0631C6.83621 8.1736 6.83598 8.29202 6.87018 8.40265L7.22699 9.57621C7.38787 10.1042 6.78768 10.5291 6.35456 10.195L5.49449 9.52671C5.3978 9.45145 5.27877 9.41058 5.15624 9.41058C5.03371 9.41058 4.91468 9.45145 4.81799 9.52671L3.95793 10.1929C3.52481 10.5291 2.92668 10.1042 3.08549 9.57621L3.44231 8.40059C3.47605 8.29024 3.47558 8.17226 3.44098 8.06218C3.40637 7.95211 3.33924 7.85509 3.24843 7.7839L2.28318 7.03521C1.85831 6.70521 2.08724 6.0184 2.62143 6.0184H3.75581C3.87604 6.01803 3.99295 5.9789 4.08918 5.90682C4.18541 5.83474 4.25583 5.73355 4.28999 5.61827L4.62412 4.52515ZM4.62412 12.7751C4.65921 12.6614 4.72981 12.5619 4.82557 12.4913C4.92134 12.4206 5.03723 12.3824 5.15624 12.3824C5.27526 12.3824 5.39115 12.4206 5.48691 12.4913C5.58268 12.5619 5.65328 12.6614 5.68837 12.7751L6.02249 13.8683C6.09468 14.1055 6.31124 14.2684 6.55462 14.2684H7.69106C8.22524 14.2684 8.45418 14.9552 8.02931 15.2852L7.06406 16.0339C6.97284 16.1052 6.90546 16.2026 6.87083 16.3131C6.83621 16.4236 6.83598 16.542 6.87018 16.6526L7.22699 17.8262C7.38787 18.3521 6.78768 18.7791 6.35456 18.445L5.49449 17.7767C5.3978 17.7014 5.27877 17.6606 5.15624 17.6606C5.03371 17.6606 4.91468 17.7014 4.81799 17.7767L3.95793 18.4429C3.52481 18.7791 2.92668 18.3542 3.08549 17.8262L3.44231 16.6506C3.47605 16.5402 3.47558 16.4223 3.44098 16.3122C3.40637 16.2021 3.33924 16.1051 3.24843 16.0339L2.28318 15.2852C1.85831 14.9552 2.08724 14.2684 2.62143 14.2684H3.75581C3.87604 14.268 3.99295 14.2289 4.08918 14.1568C4.18541 14.0847 4.25583 13.9835 4.28999 13.8683L4.62412 12.7751ZM4.62412 21.0251C4.65921 20.9114 4.72981 20.8119 4.82557 20.7412C4.92134 20.6706 5.03723 20.6324 5.15624 20.6324C5.27526 20.6324 5.39115 20.6706 5.48691 20.7412C5.58268 20.8119 5.65328 20.9114 5.68837 21.0251L6.02249 22.1183C6.09468 22.3555 6.31124 22.5184 6.55462 22.5184H7.69106C8.22524 22.5184 8.45418 23.2052 8.02931 23.5352L7.06406 24.2839C6.97284 24.3552 6.90546 24.4526 6.87083 24.5631C6.83621 24.6736 6.83598 24.792 6.87018 24.9026L7.22699 26.0762C7.38787 26.6021 6.78768 27.0291 6.35456 26.695L5.49449 26.0267C5.3978 25.9514 5.27877 25.9106 5.15624 25.9106C5.03371 25.9106 4.91468 25.9514 4.81799 26.0267L3.95793 26.6929C3.52481 27.0291 2.92668 26.6042 3.08549 26.0762L3.44231 24.9006C3.47605 24.7902 3.47558 24.6723 3.44098 24.5622C3.40637 24.4521 3.33924 24.3551 3.24843 24.2839L2.28318 23.5352C1.85831 23.2052 2.08724 22.5184 2.62143 22.5184H3.75581C3.87604 22.518 3.99295 22.4789 4.08918 22.4068C4.18541 22.3347 4.25583 22.2335 4.28999 22.1183L4.62412 21.0251Z" fill="#000"/>
</svg>
