<svg width="103" height="103" viewBox="0 0 103 103" fill="none" xmlns="http://www.w3.org/2000/svg">
<path d="M61.8309 45.6043C59.8309 45.2043 57.9975 44.1043 57.3309 43.6043C56.3297 42.1031 55.332 41.1055 52.8291 40.6055C50.3262 40.1055 48.832 41.1055 47.8291 42.6055C46.8262 44.1055 46.832 45.6055 51.332 46.6055C55.832 47.6055 63.3309 49.1055 65.832 53.1055C70.332 64.1055 64.3324 69.6055 60.332 71.1055C58.9987 71.6055 56.332 72.3813 56.332 74.1055C56.332 75.6055 56.332 76.1055 53.832 77.6055C49.832 79.6055 46.832 75.1055 46.3291 74.1055C45.8262 73.1055 44.832 72.1055 42.3291 71.1055C34.7291 67.5055 34.4958 59.9388 35.3291 56.6055C35.9958 56.2721 38.7291 55.6055 40.3291 55.6055C44.3291 55.6055 45.8291 58.6055 46.3291 60.6055C46.7291 62.2055 47.4958 62.9388 47.8291 63.1055C49.9958 63.9388 54.8291 64.9055 56.8291 62.1055C59.3291 58.6055 53.3291 57.1055 52.8291 57.1055C44.8291 55.1055 40.4809 53.6055 38.8309 50.6055C33.3309 40.6055 39.3309 35.1055 41.3309 34.1055C42.9309 33.3055 44.9975 31.7721 45.8309 31.1055C46.1642 30.7721 47.2309 29.7052 48.8309 28.1043C51.6309 26.1043 53.9975 27.271 54.8309 28.1043C56.6642 29.9376 60.9309 34.1043 63.3309 36.1043C65.7309 38.1043 65.9975 40.6043 65.8309 41.6043V46.6055C63 45.5 63.8309 46.0043 61.8309 45.6043Z" fill="#FFF500" stroke="black" stroke-width="3"/>
<path d="M2 41.3676L26 37.3676C24.5 35.7016 21.3 31.9695 20.5 30.3695C26.1 20.3695 37.1667 16.2028 42 15.3695C76.5 8.87138 85.5 36.3695 88 42.8695C89.2 48.0695 92.5 48.7028 94 48.3695L100.5 47.3695C100.667 40.8695 97.1601 23.8838 82.5 12.9476C51 -10.5508 21 9.20097 11.5 21.8676L6 17.8676L2 41.3676Z" fill="#FFF500" stroke="black" stroke-width="3"/>
<path d="M100.504 62.0738L76.5039 66.0738C78.0039 67.7398 81.2039 71.4719 82.0039 73.0719C76.4039 83.0719 65.3372 87.2386 60.5039 88.0719C26.0039 94.57 17.0039 67.0719 14.5039 60.5719C13.3039 55.3719 10.0039 54.7386 8.50391 55.0719L2.00391 56.0719C1.83724 62.5719 5.3438 79.5576 20.0039 90.4938C51.5039 113.992 81.5039 94.2404 91.0039 81.5738L96.5039 85.5738L100.504 62.0738Z" fill="#FFF500" stroke="black" stroke-width="3"/>
</svg>
