<svg width="22" height="23" viewBox="0 0 22 23" fill="none" xmlns="http://www.w3.org/2000/svg">
<path d="M2.74988 4.19549L3.6951 3.25026L19.25 18.8051L18.3047 19.7503L2.74988 4.19549ZM11.1435 8.75387L13.7461 11.3565C13.7099 10.678 13.4241 10.0368 12.9437 9.55631C12.4632 9.07584 11.822 8.79003 11.1435 8.75387ZM10.8564 14.2461L8.25383 11.6435C8.28999 12.322 8.5758 12.9632 9.05627 13.4437C9.53674 13.9242 10.1779 14.21 10.8564 14.2461Z" fill="#817F7F"/>
<path d="M11 15.625C10.3654 15.625 9.73936 15.4786 9.17057 15.1972C8.60178 14.9158 8.10559 14.507 7.7206 14.0025C7.33561 13.498 7.07221 12.9115 6.95089 12.2886C6.82956 11.6657 6.85359 11.0233 7.02109 10.4112L4.05324 7.44289C2.84109 8.5532 1.68609 10.0021 0.6875 11.5C1.82273 13.3906 3.37562 15.3345 4.99297 16.4491C6.84836 17.727 8.86574 18.375 10.9897 18.375C12.1504 18.3758 13.3024 18.1752 14.3945 17.782L12.091 15.4789C11.7355 15.5762 11.3686 15.6253 11 15.625ZM11 7.375C11.6346 7.37497 12.2606 7.52135 12.8294 7.80276C13.3982 8.08418 13.8944 8.49302 14.2794 8.9975C14.6644 9.50198 14.9278 10.0885 15.0491 10.7114C15.1704 11.3343 15.1464 11.9767 14.9789 12.5888L18.0151 15.625C19.2676 14.4971 20.4243 12.9798 21.3125 11.5C20.179 9.63387 18.6098 7.69469 16.9649 6.56633C15.0863 5.27812 13.0758 4.625 10.9897 4.625C9.84175 4.62665 8.70345 4.83463 7.6291 5.23902L9.91117 7.52109C10.266 7.42399 10.6322 7.37485 11 7.375Z" fill="#817F7F"/>
</svg>
