<svg width="287" height="186" viewBox="0 0 287 186" fill="none" xmlns="http://www.w3.org/2000/svg">
<path d="M96.699 168.621C138.701 168.621 172.751 134.572 172.751 92.5695C172.751 50.5674 138.701 16.518 96.699 16.518C54.6969 16.518 20.6475 50.5674 20.6475 92.5695C20.6475 134.572 54.6969 168.621 96.699 168.621Z" fill="#FECC45"/>
<path d="M232.972 128.358H103.864L94.3109 140.059L82.4867 128.358H68.4809C59.3616 128.358 51.9629 120.96 51.9629 111.84V62.9748C51.9629 53.8555 59.3616 46.4568 68.4809 46.4568H232.972C242.092 46.4568 249.49 53.8555 249.49 62.9748V111.84C249.49 120.96 242.092 128.358 232.972 128.358Z" fill="white" stroke="black" stroke-width="2.5" stroke-miterlimit="10" stroke-linecap="round" stroke-linejoin="round"/>
<path d="M240.199 39.9185C240.199 39.9185 257.405 37.1655 258.782 58.5012" stroke="#303030" stroke-width="2.5" stroke-miterlimit="10" stroke-linecap="round" stroke-linejoin="round"/>
<path d="M61.2541 136.156C61.2541 136.156 44.0479 138.909 42.6714 117.574" stroke="#303030" stroke-width="2.5" stroke-miterlimit="10" stroke-linecap="round" stroke-linejoin="round"/>
<path d="M167.245 168.277C170.856 168.277 173.783 165.35 173.783 161.739C173.783 158.128 170.856 155.2 167.245 155.2C163.634 155.2 160.706 158.128 160.706 161.739C160.706 165.35 163.634 168.277 167.245 168.277Z" fill="white" stroke="black" stroke-width="2.5" stroke-miterlimit="10" stroke-linecap="round" stroke-linejoin="round"/>
<path d="M189.269 152.447C191.739 152.447 193.742 150.444 193.742 147.974C193.742 145.503 191.739 143.5 189.269 143.5C186.798 143.5 184.795 145.503 184.795 147.974C184.795 150.444 186.798 152.447 189.269 152.447Z" fill="#FECC45"/>
<path d="M169.653 38.1978C172.694 38.1978 175.159 35.7327 175.159 32.6918C175.159 29.651 172.694 27.1859 169.653 27.1859C166.613 27.1859 164.147 29.651 164.147 32.6918C164.147 35.7327 166.613 38.1978 169.653 38.1978Z" fill="#FECC45"/>
<path d="M238.609 154.381C256.284 154.381 270.613 140.053 270.613 122.378C270.613 104.702 256.284 90.374 238.609 90.374C220.934 90.374 206.606 104.702 206.606 122.378C206.606 140.053 220.934 154.381 238.609 154.381Z" fill="#FF6B67" stroke="black" stroke-width="2.5" stroke-miterlimit="10"/>
<path d="M88.0064 94.4415L92.0257 88.9906L85.6938 86.8433L87.4007 81.6676L93.7326 83.7599V76.7122H99.2386V83.7599L105.57 81.6676L107.277 86.8433L100.945 88.9906L104.965 94.4415L100.505 97.6901L96.4856 92.2391L92.4112 97.6901L88.0064 94.4415Z" fill="black"/>
<path d="M118.29 94.4415L122.309 88.9906L115.977 86.8433L117.684 81.6676L124.016 83.7599V76.7122H129.522V83.7599L135.854 81.6676L137.561 86.8433L131.229 88.9906L135.248 94.4415L130.788 97.6901L126.769 92.2391L122.694 97.6901L118.29 94.4415Z" fill="black"/>
<path d="M148.573 94.4415L152.592 88.9906L146.26 86.8433L147.967 81.6676L154.299 83.7599V76.7122H159.805V83.7599L166.137 81.6676L167.844 86.8433L161.512 88.9906L165.531 94.4415L161.071 97.6901L157.052 92.2391L152.977 97.6901L148.573 94.4415Z" fill="black"/>
<path d="M178.855 94.4415L182.875 88.9906L176.543 86.8433L178.25 81.6676L184.581 83.7599V76.7122H190.087V83.7599L196.419 81.6676L198.126 86.8433L191.794 88.9906L195.814 94.4415L191.354 97.6901L187.334 92.2391L183.26 97.6901L178.855 94.4415Z" fill="black"/>
<path d="M234.569 129.811C234.569 128.193 234.817 126.775 235.312 125.544C235.808 124.312 236.448 123.203 237.24 122.212C238.031 121.221 238.829 120.32 239.635 119.514C240.77 118.379 241.789 117.319 242.69 116.349C243.592 115.378 244.039 114.229 244.039 112.907C244.039 111.662 243.592 110.595 242.69 109.714C241.789 108.833 240.481 108.392 238.754 108.392C237.212 108.392 235.884 108.86 234.762 109.796C233.64 110.732 232.952 112.006 232.697 113.623L225.98 111.971C226.31 109.913 227.053 108.117 228.21 106.575C229.366 105.034 230.873 103.829 232.725 102.969C234.576 102.109 236.641 101.675 238.919 101.675C241.637 101.675 243.929 102.205 245.801 103.272C247.673 104.339 249.105 105.715 250.096 107.401C251.087 109.087 251.583 110.87 251.583 112.742C251.583 114.208 251.287 115.516 250.702 116.651C250.117 117.787 249.387 118.826 248.527 119.762C247.666 120.698 246.772 121.627 245.856 122.543C244.721 123.644 243.702 124.8 242.801 126.012C241.899 127.223 241.452 128.634 241.452 130.251V130.912H234.569V129.811ZM234.404 135.647H241.727V143.355H234.404V135.647Z" fill="white"/>
</svg>
