<svg width="22" height="22" viewBox="0 0 22 22" fill="none" xmlns="http://www.w3.org/2000/svg">
<path d="M17.5 17.5L14.25 14.25M7.75 7.75L4.5 4.5M14.25 7.75L17.5 4.5M4.5 17.5L7.75 14.25M20.75 11C20.75 12.2804 20.4978 13.5482 20.0078 14.7312C19.5178 15.9141 18.7997 16.9889 17.8943 17.8943C16.9889 18.7997 15.9141 19.5178 14.7312 20.0078C13.5482 20.4978 12.2804 20.75 11 20.75C9.71961 20.75 8.45176 20.4978 7.26884 20.0078C6.08591 19.5178 5.01108 18.7997 4.10571 17.8943C3.20034 16.9889 2.48216 15.9141 1.99217 14.7312C1.50219 13.5482 1.25 12.2804 1.25 11C1.25 8.41414 2.27723 5.93419 4.10571 4.10571C5.93419 2.27723 8.41414 1.25 11 1.25C13.5859 1.25 16.0658 2.27723 17.8943 4.10571C19.7228 5.93419 20.75 8.41414 20.75 11ZM15.3333 11C15.3333 12.1493 14.8768 13.2515 14.0641 14.0641C13.2515 14.8768 12.1493 15.3333 11 15.3333C9.85073 15.3333 8.74853 14.8768 7.93587 14.0641C7.12321 13.2515 6.66667 12.1493 6.66667 11C6.66667 9.85073 7.12321 8.74853 7.93587 7.93587C8.74853 7.12321 9.85073 6.66667 11 6.66667C12.1493 6.66667 13.2515 7.12321 14.0641 7.93587C14.8768 8.74853 15.3333 9.85073 15.3333 11V11Z" stroke="#0B3B71" stroke-width="2"/>
</svg>
