<svg id="objects" xmlns="http://www.w3.org/2000/svg" xmlns:xlink="http://www.w3.org/1999/xlink" viewBox="0 0 400.67 266.67"><defs><style>.cls-1,.cls-13{fill:#000;}.cls-2{fill:#0180ff;opacity:0.1;}.cls-3{clip-path:url(#clip-path);}.cls-20,.cls-4{fill:#ffbc45;}.cls-5{fill:#ffe4b5;}.cls-6{fill:#31241c;}.cls-15,.cls-17,.cls-7{fill:#c97440;}.cls-8{fill:#ab5d2d;}.cls-9{fill:#1a191f;}.cls-10{fill:#1f0e03;}.cls-11{fill:#5f7e91;}.cls-12{fill:#49687a;}.cls-13{stroke:#1f0e03;stroke-miterlimit:10;}.cls-14{fill:#f5cdb3;}.cls-15{font-size:12.7px;}.cls-15,.cls-17,.cls-20{font-family:Raleway-Bold, Raleway;font-weight:700;}.cls-16{fill:#fff2db;}.cls-17{font-size:13.17px;}.cls-18{fill:url(#linear-gradient);}.cls-19{fill:url(#linear-gradient-2);}.cls-20{font-size:18.59px;}</style><clipPath id="clip-path"><path class="cls-1" d="M182.66,13.65C119.61,9.7,97.25,40.79,65.2,73S18.35,139.07,37,187.4,99.55,248,168.56,248s140.06,6.73,176.05-19.56,48.25-86.35-3.9-117.79C310,92.16,269.81,19.12,182.66,13.65Z"/></clipPath><linearGradient id="linear-gradient" x1="284.73" y1="83.05" x2="284.73" y2="47.7" gradientUnits="userSpaceOnUse"><stop offset="0" stop-color="#0b5dba"/><stop offset="1" stop-color="#0a3c84"/></linearGradient><linearGradient id="linear-gradient-2" x1="11.43" y1="150.65" x2="83.21" y2="150.65" xlink:href="#linear-gradient"/></defs><title>Vector Smart Object</title><rect width="400.67" height="266.67"/><path class="cls-2" d="M182.66,13.65C119.61,9.7,97.25,40.79,65.2,73S18.35,139.07,37,187.4,99.55,248,168.56,248s140.06,6.73,176.05-19.56,48.25-86.35-3.9-117.79C310,92.16,269.81,19.12,182.66,13.65Z"/><g class="cls-3"><path class="cls-4" d="M81.62,237.86c-.67-8.37-3.39-16.32-6.1-24.22s-5.68-16-5.82-24.37c-.06-3.6,1.59-10.93,6.72-9.55,1.74.46,2.83,2.35,3.61,3.82a40.64,40.64,0,0,1,2.56,6.05c2.69,7.81,3.18,16.17,3.15,24.36,0,6.16-.44,12.36.06,18.51,0,.36.58.38.58,0a143.46,143.46,0,0,1,2-25.77,112.33,112.33,0,0,1,2.87-12c.42-1.42,1.74-3.59,3.19-4,2.16-.56,4.83,0,5.67,2.37,3.1,8.71.47,18.08-2.42,26.45a110,110,0,0,1-4,10.46q-1.92,4.15-3.76,8.34c-.36.82-.72,1.64-1.06,2.47-.15.34.41.49.56.15,2.19-5.28,4.92-10.35,6.85-15.74,2.9-8.06,6.13-16.34,5.76-25.06a26.77,26.77,0,0,0-.9-5.7A5,5,0,0,0,95.05,190a3.29,3.29,0,0,0-2.87,1.84,9.77,9.77,0,0,0-1.2,1.7c-.3,1-.58,1.94-.86,2.92-.58,2.07-1.09,4.15-1.55,6.25a111.56,111.56,0,0,0-1.9,11.64,158.68,158.68,0,0,0-.87,18.11h.58c-.58-7.08,0-14.22-.07-21.31-.09-8-1-16.08-3.85-23.62-1.06-2.76-2.31-6.1-4.82-7.86s-5.49.18-6.91,2.44c-1.89,3-1.77,7-1.39,10.42a70.28,70.28,0,0,0,2.47,11.55c3.23,11.23,8.29,22,9.24,33.78,0,.37.6.37.57,0Z"/><path class="cls-4" d="M81.57,237.77a38.16,38.16,0,0,0-.66-4.78.29.29,0,0,0-.57.07c.1,1.61.33,3.2.58,4.8.06.36.61.21.56-.16a45.19,45.19,0,0,1-.56-4.64l-.57.08a37.9,37.9,0,0,1,.64,4.63c0,.37.62.37.58,0Z"/><path class="cls-4" d="M73.66,238c-2.45-6.47-7.58-11.22-12.14-16.22A40,40,0,0,1,55.16,213c-1.56-3.08-3.67-7.71-1.55-11,1.83-2.81,5.83-.53,7.83.81a30.76,30.76,0,0,1,6.47,6.37,62.43,62.43,0,0,1,11.67,22.3,54.86,54.86,0,0,1,1.32,6.08c.06.37.62.21.56-.15A60.56,60.56,0,0,0,73,215.26c-3.28-5.26-7.36-10.92-12.93-14-1.8-1-4.15-1.74-6-.49-2.35,1.58-2,5-1.37,7.39,1.73,6.69,6.49,11.89,11.09,16.79,3.7,3.95,7.43,8,9.37,13.15.13.35.69.2.56-.15Z"/><path class="cls-4" d="M96.29,194.38c-3.83,6-3.11,13.6-4.28,20.33-.67,3.87-2.05,7.55-2.76,11.41-.75,4.07-1.56,8.12-2.53,12.15-.09.36.47.51.55.15q1.4-5.78,2.45-11.62c.66-3.67,1.94-7.18,2.65-10.83.67-3.49,1-7,1.29-10.51.35-3.78,1-7.54,3.13-10.79.21-.31-.3-.6-.5-.29Z"/><path class="cls-4" d="M74.61,185.67c.26,4.36,1.74,8.49,2.74,12.72,1.13,4.71,2,9.49,3,14.24s1.75,9.27,2.75,13.89A71.25,71.25,0,0,1,85,241a.29.29,0,0,0,.58,0A68.72,68.72,0,0,0,84,228q-1.44-7.19-2.86-14.36c-.9-4.59-1.81-9.19-2.84-13.76s-2.8-9.33-3.09-14.17c0-.38-.6-.38-.58,0Z"/><path class="cls-4" d="M60.21,209.8a77.52,77.52,0,0,1,11.23,14c1.66,2.55,3.17,5.22,4.67,7.86A66.86,66.86,0,0,1,80,241c.13.34.69.19.56-.16a69,69,0,0,0-3.39-8.43c-1.55-2.84-3.18-5.67-4.92-8.39a77.72,77.72,0,0,0-11.6-14.57c-.27-.26-.68.15-.41.4Z"/><path class="cls-4" d="M61,217.6c3.52,2.37,7.37,4.22,10.7,6.86.28.23.7-.17.4-.41-3.36-2.67-7.25-4.56-10.8-7-.32-.2-.61.3-.3.5Z"/><path class="cls-4" d="M70.69,217.15A22.35,22.35,0,0,1,73.47,223a61,61,0,0,1,2.1,7.51c.09.36.65.2.56-.16a65.12,65.12,0,0,0-2.23-7.86,21.73,21.73,0,0,0-2.71-5.64c-.22-.29-.72,0-.5.29Z"/><path class="cls-4" d="M89.76,210.41c.2,2.45,1.38,4.68,1.46,7.14a.29.29,0,0,0,.58,0c-.08-2.46-1.26-4.69-1.46-7.14,0-.37-.61-.37-.58,0Z"/><path class="cls-4" d="M78.45,190.06c-.81,2.54-.7,5.31-1,7.94,0,.37.53.37.58,0,.33-2.58.23-5.29,1-7.79.11-.36-.44-.51-.56-.15Z"/><path class="cls-4" d="M73.85,200.61c1.27,1.8,2.31,3.73,3.62,5.5a13.47,13.47,0,0,1,2.63,5.18c.08.37.64.21.56-.15a12.39,12.39,0,0,0-2.08-4.46c-1.43-2.1-2.76-4.29-4.23-6.36-.22-.3-.72,0-.5.29Z"/><path class="cls-4" d="M83.15,207.62c-.59,3.57-1.17,7.13-1.51,10.73,0,.37.55.37.58,0,.34-3.54.91-7.06,1.49-10.57.06-.37-.5-.52-.56-.16Z"/><path class="cls-4" d="M98.42,198.42c-1.43,3.74-3.86,7-5.55,10.66-.16.33.34.63.5.29,1.71-3.67,4.16-7,5.61-10.8.13-.35-.43-.5-.56-.15Z"/><path class="cls-4" d="M305.14,246.93a24.6,24.6,0,0,0-4.56-7.32c-2.5-2.71-5.72-4.49-7.93-7.5a90.91,90.91,0,0,1-5.79-9.43,17.68,17.68,0,0,1-2.27-5.9,26.72,26.72,0,0,1-.11-6.32l-.43.25a13.94,13.94,0,0,1,3.56,2.65c1.12,1,2.44,1.72,3.64,2.6a35,35,0,0,1,7.35,7.53,44.64,44.64,0,0,1,4.51,8.57c1.12,2.54,2,5.45,3.68,7.7.18.25.64.11.53-.22a50.3,50.3,0,0,1-2.68-18.21,67.91,67.91,0,0,1,.85-8.4,21.61,21.61,0,0,1,2.45-7.76h-.5a14.72,14.72,0,0,1,1.09,4.14,27.63,27.63,0,0,0,1.43,4.61,61.86,61.86,0,0,1,2.61,10.38,32.17,32.17,0,0,1,.29,10.94c-.52,3.43-1.47,6.78-2.19,10.17-.06.31.38.53.53.22,1-2.06,2-4.14,2.84-6.28.94-2.33,1.55-4.75,2.38-7.11,1.29-3.71,3.51-7.09,7.05-8.94,4.24-2.21,13.94-4.41,15,2.47l.43-.33c-6.41-2.71-11.44,3.28-14.66,8.05-2.18,3.23-4.43,6.27-6.92,9.28a31.91,31.91,0,0,1-3,3.7c-1,.93-3,2.35-4.47,2.21-.38,0-.37.54,0,.58,1.93.18,4.6-1.78,5.68-3.26,2.19-3,4.8-5.74,7-8.77,3.62-5,8.4-14.55,16.11-11.29a.3.3,0,0,0,.43-.33c-1.1-6.82-10-5.29-14.58-3.42a14.57,14.57,0,0,0-7.55,7.3,53.86,53.86,0,0,0-2.56,7.26,67.12,67.12,0,0,1-3.69,8.59l.53.23c.75-3.57,1.71-7.08,2.26-10.68a30.32,30.32,0,0,0-.26-10.19,65.18,65.18,0,0,0-2.72-10.93,34.07,34.07,0,0,1-1.42-4.61,16.52,16.52,0,0,0-1.15-4.28.29.29,0,0,0-.5,0c-2.64,4.5-3,10.34-3.33,15.44a49.79,49.79,0,0,0,2.65,19.37l.53-.22c-1.75-2.38-2.7-5.48-3.89-8.17a43,43,0,0,0-4.91-8.92,35.15,35.15,0,0,0-6.56-6.62c-1.39-1.08-2.93-2-4.26-3.12a13.07,13.07,0,0,0-3.33-2.43.29.29,0,0,0-.43.25c-.27,3.73-.13,7.29,1.5,10.71a89.06,89.06,0,0,0,6,10.14,21.63,21.63,0,0,0,3.11,3.83c1.31,1.26,2.86,2.25,4.21,3.46a23,23,0,0,1,5.86,8.49c.14.34.7.19.56-.16Z"/><path class="cls-4" d="M301.2,247.3c-3.28-5.3-5.9-12.5-12.19-14.92-3.34-1.3-7.38-.56-10.52.93-3.55,1.68-6.36,4.67-8.86,7.62a.3.3,0,0,0,.28.49c5.37-1.59,12.11-1.91,17.09,1.06,2.37,1.41,4.23,3.82,6.11,5.81,1.23,1.32,2.14,3.54,4.06,4,.36.09.52-.47.15-.55-1.28-.31-2.15-1.72-2.89-2.7a33.8,33.8,0,0,0-2.31-2.62c-1.92-2.06-3.8-4.12-6.43-5.25-4.94-2.1-10.87-1.8-15.93-.31l.28.48c4.57-5.4,11.2-11,18.82-8.41,3.12,1.08,5.36,3.94,7.12,6.59s3.08,5.42,4.72,8.07a.29.29,0,0,0,.5-.29Z"/><path class="cls-4" d="M292.43,222.14c2.34,4.92,6.5,8.55,9.5,13a53,53,0,0,1,3.9,7.14c1.38,3,.94,6.07.92,9.26,0,.37.57.37.58,0,0-2.7.48-5.55-.42-8.14a45.69,45.69,0,0,0-4-7.78c-2.91-4.92-7.51-8.6-10-13.81-.16-.34-.66,0-.5.29Z"/><path class="cls-4" d="M284.48,237c4.29,2.27,8.49,4.64,11.46,8.57,1.05,1.4,2.08,2.81,3.16,4.19.31.41,1.19,1.92,1.85,1.85.36,0,.37-.62,0-.58s-2.05-2.47-2.29-2.78c-1-1.29-1.91-2.6-2.91-3.87-2.8-3.59-7-5.79-11-7.88-.33-.18-.63.32-.3.5Z"/><path class="cls-4" d="M308.49,221.12c.05,2.55.74,5,1,7.53a34.66,34.66,0,0,1-.38,9.15c-.82,5.51-.44,11.11-2,16.53l.57.08v-.66a.29.29,0,0,0-.58,0v.66a.29.29,0,0,0,.57.07c1.47-5.24,1.35-10.72,1.91-16.09a56.13,56.13,0,0,0,.53-8.68c-.14-2.9-1.07-5.68-1.12-8.59,0-.37-.59-.37-.58,0Z"/><path class="cls-4" d="M327.34,224.79c-4.43,2.8-7.64,7.64-10.17,12.14-2.43,4.32-4.57,9.66-9.41,11.79-.34.15-.05.65.29.5,4.31-1.9,6.58-6.36,8.69-10.3,2.69-5,6-10.53,10.89-13.63.32-.2,0-.7-.29-.5Z"/></g><path class="cls-4" d="M206.75,129.67a5.57,5.57,0,0,1-5.57,5.58h0a5.58,5.58,0,0,1-5.58-5.58V125.8a5.58,5.58,0,0,1,5.58-5.58h0a5.57,5.57,0,0,1,5.57,5.58Z"/><path class="cls-4" d="M263.6,190.58c-1.54-7.51-8.2-27.83-24.43-35.18s-31.42-1.36-37.06,2-12.12,16.74-15,29.2-12.81,12.3-20.5,15l3.59,13,79.24.52.17-2.05C270.26,211.93,265.13,198.1,263.6,190.58Zm-81,19.9c3.16,0,17.25-10.59,20.15-10.25,1.45,7.77,1.63,11.87,1.8,12.38S183.41,216.88,182.56,210.48Z"/><path class="cls-5" d="M210.71,161c-1,4.89-5.24,34.84,1.94,54.54a130.09,130.09,0,0,0,13.89,0c-1.6-10.37-4.79-39.06,1.82-55.45C221.75,160.24,210.71,161,210.71,161Z"/><path class="cls-5" d="M214.35,152.16c-5.63.34-6.94,6.43-4.38,10.19s7.4.68,8.25-1.2c6.1,5.75,14,.57,15.72-8C233.94,152.5,224.26,150.62,214.35,152.16Z"/><path class="cls-4" d="M230.41,121.29c-.26-5.68-6.09-16.53-19.93-15.91-9.84.75-11,10.08-11,10.08a16.94,16.94,0,0,1-2.11,3.26c-.51-4.37,2.25-16,14.69-16.26,14-.35,20.69,10.61,20.95,18.48A1.53,1.53,0,0,1,230.41,121.29Z"/><path class="cls-6" d="M202.93,110.54c-4.73,3.24-7.56,8.63-5.16,14s3.08,7.73.75,11.93c-3.27,5.9-4.65,11.41-2.19,16.42,14.84-2,21.36-3.72,21.36-3.72S212,109.91,202.93,110.54Z"/><path class="cls-7" d="M225,137.55s3.67,11,4,15.72c.32,4.29-13.86,7.14-14.86,2.65-1.05-5.34-2.61-14.42-2.61-14.42"/><path class="cls-8" d="M226.13,142.16,225,137.55,211.5,141.5s.48,2.79,1.1,6.29a13.25,13.25,0,0,0,13.53-5.63Z"/><path class="cls-7" d="M201.44,132.18a13.34,13.34,0,0,0,13.92,12.73h0A13.35,13.35,0,0,0,228.1,131l-.63-14.09a13.35,13.35,0,0,0-13.93-12.73h0a13.34,13.34,0,0,0-12.73,13.92Z"/><path class="cls-6" d="M219.05,117.58a6.27,6.27,0,0,0-5.66-.41c-.66.34-.08,1.33.58,1a5.12,5.12,0,0,1,4.5.41c.65.35,1.23-.64.58-1Z"/><path class="cls-6" d="M203,119.44a3.39,3.39,0,0,1,3-.81c.72.15,1-1,.3-1.11a4.58,4.58,0,0,0-4.11,1.11c-.54.51.27,1.32.81.81Z"/><path class="cls-6" d="M210.91,129.72a.42.42,0,0,1-.29-.11l-2.6-2.29a.43.43,0,0,1,.08-.7l2.62-1.47a.43.43,0,1,1,.42.75l-2.08,1.18L211.2,129a.43.43,0,0,1-.29.76Z"/><path class="cls-6" d="M211.87,133.41a3.46,3.46,0,0,1-1.92-.55.45.45,0,0,1-.12-.61.44.44,0,0,1,.61-.11,2.91,2.91,0,0,0,2.82.06,2.06,2.06,0,0,0,1.05-2,.44.44,0,0,1,.42-.45.43.43,0,0,1,.45.41,2.91,2.91,0,0,1-1.5,2.84A3.66,3.66,0,0,1,211.87,133.41Z"/><path class="cls-9" d="M213.83,124.92a1.62,1.62,0,1,0,.94-2.1A1.62,1.62,0,0,0,213.83,124.92Z"/><path class="cls-9" d="M204.13,125.5a1.63,1.63,0,1,0,1-2.09A1.62,1.62,0,0,0,204.13,125.5Z"/><path class="cls-9" d="M204.55,125.11a.46.46,0,0,1-.2,0l-1.58-1a.38.38,0,1,1,.4-.65l1.58,1a.38.38,0,0,1-.2.7Z"/><path class="cls-9" d="M216,124.54a.36.36,0,0,1-.31-.16.38.38,0,0,1,.09-.53l1.66-1.15a.38.38,0,0,1,.43.63l-1.65,1.15A.43.43,0,0,1,216,124.54Z"/><path class="cls-6" d="M240.78,132.26c-2.21-4.77.52-7.73-.65-12.27-1-4-5.77-3.85-8.2-9.48-3.74-8.63-23-16.39-30.14,1.12,8-5.41,16.14-2.6,19.24,1.4,6.25,8-.16,11.47,2.25,16.26,1.76,3.49,2.91,5.84.64,11.12s.91,10.31.91,10.31c7.44-.82,15.85-1.56,23.5-2.85C248.33,135,243,137,240.78,132.26Z"/><path class="cls-7" d="M207,198.27c-6.49.57-9,2.5-14.8,5.58s-7.06,3.76-5.69,4.32c-3.42.23-1.42,2.05,1,1.26-1.6.68.62,1.42,3.81.22.8,1.26,4.9.69,7.52-.79s8.88-2.74,14.57-.8c.68-3.53-1.48-9.68-1.48-9.68Z"/><path class="cls-4" d="M211.08,198.35a97.56,97.56,0,0,1,19.1-1.22c.34,4.55-2.16,13.78-2.16,13.78l-15.49-3.42A16.55,16.55,0,0,0,211.08,198.35Z"/><path class="cls-10" d="M210.79,198.43c6.91-1,13.9-1,20.87-1.17,3.36-.1,6.58-.49,9.9-.87a26.33,26.33,0,0,1,9.95,1.25c.36.11.51-.45.15-.56a30,30,0,0,0-9-1.34,35.64,35.64,0,0,0-4.35.54,50.92,50.92,0,0,1-6.05.38c-7.21.24-14.44.18-21.6,1.22-.37.05-.21.61.16.55Z"/><path class="cls-10" d="M241.63,180.7a108.12,108.12,0,0,1,1,14.49.29.29,0,0,0,.58,0,110.52,110.52,0,0,0-1-14.65c-.05-.37-.61-.21-.56.16Z"/><path class="cls-10" d="M212.08,207.78c2.09,0,4,.9,6,1.44,2.36.64,4.67,1.44,7,2.09a70.8,70.8,0,0,0,14.66,2.42c7.85.46,17.35.07,23.28-5.81.27-.26-.14-.67-.41-.41-6.19,6.15-16.38,6.15-24.51,5.53a70.85,70.85,0,0,1-14.42-2.73c-2.1-.61-4.2-1.26-6.29-1.88a18.09,18.09,0,0,0-5.35-1.23.29.29,0,0,0,0,.58Z"/><path class="cls-10" d="M200.53,174.74a14.28,14.28,0,0,0-.34,4.84c0,2.22.19,4.43.31,6.65s.18,4.38.35,6.57c.16,2,.93,3.93,1,5.92,0,.38.6.38.58,0-.09-1.82-.8-3.55-1-5.38-.2-2-.27-4-.35-6s-.23-4-.32-6.07-.37-4.41.27-6.36c.12-.35-.44-.5-.55-.15Z"/><path class="cls-10" d="M209.29,154.93c-.91,3.2-1.55,7.29,2.05,9.09a4.69,4.69,0,0,0,4-.23,10.17,10.17,0,0,0,2.37-1.7c.74-.63,1.06.33,1.71.79,5.28,3.78,12.23-1.45,14-6.66.12-.36-.44-.51-.56-.15-1.87,5.56-9.84,10.66-14.43,5a.29.29,0,0,0-.41,0c-1.9,1.71-4.38,3.74-7,2.14-2.83-1.75-1.92-5.54-1.19-8.12a.29.29,0,0,0-.56-.15Z"/><path class="cls-10" d="M191,210.16c1.82-.32,3.28-1.46,4.82-2.43a43.92,43.92,0,0,1,6.79-3c.34-.14.19-.7-.15-.56-1.9.78-3.84,1.44-5.67,2.37-2,1-3.69,2.69-6,3.09-.36.07-.21.63.16.56Z"/><path class="cls-10" d="M186.83,210.13c4.62-1.94,8.86-4.68,13.6-6.34.35-.13.2-.69-.16-.56-4.78,1.68-9.07,4.44-13.73,6.4-.34.15,0,.65.29.5Z"/><path class="cls-10" d="M185.81,208.77c1.82-1.11,3.9-1.62,5.77-2.62s3.7-2,5.61-2.85c.34-.15.05-.65-.29-.5-1.92.86-3.76,1.87-5.61,2.85s-3.95,1.51-5.77,2.62a.29.29,0,0,0,.29.5Z"/><path class="cls-10" d="M215.84,166c.19,1,1.65,1,2.12.2a.89.89,0,0,0-.43-1.19,1.24,1.24,0,0,0-1.58.26c-.21.31.29.59.5.29s1.32,0,1,.43-.91.34-1-.14-.63-.21-.56.15Z"/><path class="cls-10" d="M215.07,170.27c-.15,1,1,1.31,1.73.74a.94.94,0,0,0,.24-1.25c-.31-.41-.91-.34-1.34-.21s-.2.68.15.56a.88.88,0,0,1,.71,0c.18.1-.06.43-.15.5s-.84.27-.78-.17-.51-.52-.56-.15Z"/><path class="cls-10" d="M214.72,175.81c.05,1.16,1.76.7,1.94-.18.2-1.07-1.66-1.66-1.85-.49-.05.36.51.52.56.15s.71-.14.72.21-.78.64-.79.31-.6-.37-.58,0Z"/><path class="cls-10" d="M203.45,207.49a5.8,5.8,0,0,0,.35,2.64c.14.34.7.19.56-.15a5.44,5.44,0,0,1-.33-2.49c0-.37-.55-.37-.58,0Z"/><path class="cls-10" d="M210.68,198.52c1.08.76,1.17,2.26,1.47,3.44a7.75,7.75,0,0,1,0,5c-.15.33.35.63.5.29.77-1.71.45-3.67,0-5.44-.32-1.37-.51-2.92-1.74-3.78-.3-.22-.59.29-.29.5Z"/><path class="cls-10" d="M196.71,133c-.91,6.75,9.07,6.78,13.38,6.57.37,0,.37-.6,0-.58-3.81.18-13.66.37-12.82-5.84,0-.36-.51-.52-.56-.15Z"/><path class="cls-4" d="M213.44,139.21a2.17,2.17,0,1,1-2.13-1.74A2,2,0,0,1,213.44,139.21Z"/><path class="cls-4" d="M212,102.46c-7.09.18-11,4-13,8.1a6.9,6.9,0,0,1,2,.56,11.36,11.36,0,0,1,9.47-5.74c13.84-.62,19.67,10.23,19.93,15.91a1.53,1.53,0,0,0,2.56-.35C232.71,113.07,226,102.11,212,102.46Z"/><path class="cls-4" d="M237.47,129.67a5.58,5.58,0,0,1-5.58,5.58h0a5.58,5.58,0,0,1-5.58-5.58V125.8a5.58,5.58,0,0,1,5.58-5.58h0a5.58,5.58,0,0,1,5.58,5.58Z"/><path class="cls-10" d="M236.15,129.08a3.43,3.43,0,0,1-6.64,1.09,10.94,10.94,0,0,1-.18-3.66c0-3.86,5.3-4.52,6.64-1.09a10.67,10.67,0,0,1,.18,3.66.29.29,0,0,0,.58,0c0-2.33.23-4.57-2-6-2.67-1.75-5.85.6-6,3.45-.12,2.28-.14,4.62,2,6,2.67,1.75,5.85-.6,6-3.44C236.75,128.7,236.17,128.7,236.15,129.08Z"/><path class="cls-11" d="M170.86,210.11h44.52c2.05,0,2.5,4.1-.91,4.1H112.34c-3.07-6.15-16.85-43.72-18.22-47.25s-.11-7.63,5.47-7.63h39.17c4.09,0,8.65.68,11.49,6.94S170.86,210.11,170.86,210.11Z"/><path class="cls-12" d="M215.52,214.05l.37-.17h0c1.75-1,1.15-3.76-.54-3.76H170.86l0-.08-.09-.18-.9-1.91c-3.82-8.08-17.15-36.31-19.59-41.67-2.84-6.26-7.4-6.94-11.49-6.94h-3.65c4.1,0,8.65.68,11.5,6.94s20.61,43.84,20.61,43.84l1.54,4,5,.11h40.73a3.45,3.45,0,0,0,.57-.05,1.83,1.83,0,0,0,.32-.07Z"/><path class="cls-13" d="M133.86,187.34c1.12,2.78-.21,5-3,5a8.36,8.36,0,0,1-7-5c-1.12-2.78.21-5,3-5A8.36,8.36,0,0,1,133.86,187.34Z"/><path class="cls-14" d="M267.61,217.39H107v25.46c17.63,3.75,41.39,6.46,64.79,6.76,32,.4,65.25,0,95.81-1.45Z"/><path class="cls-7" d="M274.27,216.75a2.75,2.75,0,0,1-2.75,2.75H103.09a2.75,2.75,0,0,1-2.75-2.75h0a2.75,2.75,0,0,1,2.75-2.75H271.52a2.75,2.75,0,0,1,2.75,2.75Z"/><path class="cls-4" d="M87.65,119.22c3.82,3.62,6.93,3.62,6.93,0s0-9.53,0-13.15a6.8,6.8,0,0,0-6.94-6.58H73.75c-3.81,0-3.8,3,0,6.58Z"/><path class="cls-4" d="M74.89,32.71h81.59A22.22,22.22,0,0,1,178.7,54.94V84.22a22.22,22.22,0,0,1-22.22,22.22H74.89A22.23,22.23,0,0,1,52.67,84.22V54.94A22.23,22.23,0,0,1,74.89,32.71Z"/><text class="cls-15" transform="translate(108.57 55.75)">HELP!</text><rect class="cls-16" x="109.89" y="61.65" width="56.9" height="3.7"/><rect class="cls-16" x="109.89" y="70.64" width="49.14" height="3.7"/><rect class="cls-16" x="109.89" y="79.63" width="32.59" height="3.7"/><rect class="cls-16" x="109.89" y="88.62" width="52.72" height="3.7"/><path class="cls-6" d="M98.59,91C96.9,86.74,91,83.73,88,83.77H77.91c-3.33.31-8.87,3-10.56,7.18a22.36,22.36,0,0,0,31.24,0Z"/><path class="cls-7" d="M78.84,75.13s-1,8-1.64,12.46c-.49,3.29,11.31,4.22,11.67.67.31-4.2.68-11.33.68-11.33"/><path class="cls-8" d="M78.36,78.79l.48-3.66,10.71,1.8-.27,4.94a10.63,10.63,0,0,1-2.35.46A10.3,10.3,0,0,1,78.36,78.79Z"/><path class="cls-7" d="M96.43,68.83a10.35,10.35,0,0,1-9.54,11.08h0a10.35,10.35,0,0,1-11.08-9.54L75,59.47A10.32,10.32,0,0,1,84.53,48.4h0a10.32,10.32,0,0,1,11.08,9.53Z"/><path class="cls-6" d="M82.35,60.61a5.42,5.42,0,0,0,3.49-2.17c.43-.6-.57-1.17-1-.58a4.26,4.26,0,0,1-2.79,1.64c-.73.16-.42,1.26.3,1.11Z"/><path class="cls-6" d="M94.05,58.35a2.27,2.27,0,0,1-1.71-1.26c-.36-.65-1.35-.07-1,.58a3.34,3.34,0,0,0,2.39,1.79c.73.13,1-1,.31-1.11Z"/><path class="cls-6" d="M88.88,67.92a.44.44,0,0,1-.29-.11.44.44,0,0,1,0-.62l1.38-1.54L88.35,65a.43.43,0,1,1,.33-.8l2.15.89a.43.43,0,0,1,.26.3.45.45,0,0,1-.1.39l-1.79,2A.42.42,0,0,1,88.88,67.92Z"/><path class="cls-6" d="M86.27,72.31a.45.45,0,0,1-.36-.19.43.43,0,0,1,.1-.6c1.72-1.21,3.25-1.7,4.57-1.45a.44.44,0,1,1-.16.86c-1.08-.21-2.39.23-3.9,1.3A.49.49,0,0,1,86.27,72.31Z"/><path class="cls-9" d="M86.23,64.39a1.26,1.26,0,1,1-2.44-.61,1.26,1.26,0,0,1,2.44.61Z"/><path class="cls-9" d="M93.74,63.94a1.26,1.26,0,1,1-.92-1.52A1.26,1.26,0,0,1,93.74,63.94Z"/><path class="cls-7" d="M77.79,67.63A3.75,3.75,0,0,1,75,72.17h0a3.76,3.76,0,0,1-4.53-2.76l-.28-1.16A3.75,3.75,0,0,1,73,63.72h0a3.76,3.76,0,0,1,4.54,2.76Z"/><path class="cls-6" d="M72.13,64.1c-.88-2.52-5.18-12.74,1.22-13,.39-4,6-6.13,12.94-7.49s11.31,1.89,10.78,5.16-4.81,4.45-8.2,3.48c-1,3.53-5.65,2.34-6.66,1.63-.78,3.42-4.66,4.25-4.22,6.63s.64,4.8.72,5.29-1.93,1.43-2.38.46S74.15,63.5,72.13,64.1Z"/><path class="cls-10" d="M91.39,119.9c4.23.84,1.81-13.5,1.78-15.66l-.29.29q13.65.12,27.3,0c6.51-.06,13-.22,19.51-.22,4,0,8-.15,12-.3,4.29-.17,8.56-.16,12.73-1.27,8-2.12,10.89-10.56,11.72-18,0-.37-.54-.37-.58,0-.61,5.5-2.28,11.53-6.7,15.19-3.34,2.76-8.25,3.11-12.38,3.31s-8.26.37-12.38.43c-13,.19-26.09.32-39.14.29q-6,0-12.06-.06a.29.29,0,0,0-.29.29c0,1.82,1.91,15.69-1,15.11-.37-.08-.52.48-.16.55Z"/><path class="cls-10" d="M175.85,60c0,7.19.31,14.42-.18,21.6,0,.38.55.37.58,0,.49-7.18.18-14.41.18-21.6a.29.29,0,0,0-.58,0Z"/><rect class="cls-4" x="270" y="100.57" width="130.67" height="76.44" rx="23.04"/><path class="cls-4" d="M296.09,190.26c-4,3.74-7.2,3.74-7.19,0s0-9.89,0-13.64a7.05,7.05,0,0,1,7.2-6.82h14.36c3.95,0,3.95,3.07,0,6.82Z"/><text class="cls-17" transform="translate(286.9 126.06)">THANKS!</text><rect class="cls-16" x="285.34" y="132.18" width="58.99" height="3.84"/><rect class="cls-16" x="285.34" y="141.5" width="50.95" height="3.84"/><rect class="cls-16" x="285.34" y="150.82" width="33.79" height="3.84"/><path class="cls-6" d="M357.87,162.37c1.76-4.37,7.84-7.49,10.95-7.45h10.49c3.45.33,9.19,3.08,10.95,7.45a23.19,23.19,0,0,1-32.39,0Z"/><path class="cls-7" d="M378.35,146s1,8.26,1.7,12.93c.51,3.41-11.73,4.37-12.1.69-.33-4.36-.7-11.75-.7-11.75"/><path class="cls-8" d="M378.85,149.76l-.5-3.8-11.1,1.87s.11,2.27.27,5.12a10.35,10.35,0,0,0,2.44.48A10.66,10.66,0,0,0,378.85,149.76Z"/><path class="cls-7" d="M360.12,139.44A10.71,10.71,0,0,0,370,150.92h0A10.72,10.72,0,0,0,381.48,141l.85-11.3a10.71,10.71,0,0,0-9.88-11.48h0A10.71,10.71,0,0,0,361,128.14Z"/><path class="cls-6" d="M374.79,129.87a3.27,3.27,0,0,0-3.15-1.75c-.73.08-.74,1.23,0,1.15a2.13,2.13,0,0,1,2.15,1.18c.35.65,1.34.07,1-.58Z"/><path class="cls-6" d="M363.15,129.55a2.42,2.42,0,0,1,2.14-.71c.72.17,1-.94.31-1.11a3.62,3.62,0,0,0-3.27,1c-.51.53.3,1.35.82.81Z"/><path class="cls-6" d="M367.94,138.47a.45.45,0,0,1-.32-.14l-1.86-2.08a.41.41,0,0,1-.09-.38.44.44,0,0,1,.25-.31l2.23-.92a.43.43,0,1,1,.33.8l-1.66.69,1.45,1.62a.43.43,0,0,1,0,.61A.39.39,0,0,1,367.94,138.47Z"/><path class="cls-6" d="M367.77,144.42h0c-1.19,0-2-1.26-2.46-3.85a.44.44,0,0,1,.49-.51,19.29,19.29,0,0,0,3,.22c.69,0,1.44,0,2.29-.09a.44.44,0,0,1,.41.66C370.09,143.25,368.87,144.42,367.77,144.42ZM366.28,141c.37,1.63.9,2.55,1.49,2.55.39,0,1.2-.33,2.56-2.44A23,23,0,0,1,366.28,141Z"/><path class="cls-9" d="M370.69,134.83a1.3,1.3,0,0,0,2.53-.63,1.3,1.3,0,0,0-2.53.63Z"/><path class="cls-9" d="M362.9,134.37a1.3,1.3,0,1,0,1-1.58A1.31,1.31,0,0,0,362.9,134.37Z"/><path class="cls-7" d="M379.43,138.2a3.88,3.88,0,0,0,2.86,4.69h0A3.88,3.88,0,0,0,387,140l.29-1.19a3.89,3.89,0,0,0-2.86-4.7h0a3.89,3.89,0,0,0-4.7,2.86Z"/><path class="cls-6" d="M385.3,134.53c.92-2.61,5.37-13.2-1.26-13.52-.41-4.16-6.19-6.36-13.41-7.78s-11.73,2-11.18,5.35,5,4.62,8.5,3.62c1,3.65,5.85,2.42,6.9,1.69.82,3.54,4.84,4.4,4.38,6.87s-.66,5-.75,5.48,2,1.49,2.47.48S383.21,133.91,385.3,134.53Z"/><path class="cls-10" d="M377.36,175.3c8.5-.34,17.62-5.75,19.43-14.54.08-.36-.48-.52-.56-.15-1.76,8.53-10.61,13.78-18.87,14.11-.37,0-.38.59,0,.58Z"/><path class="cls-10" d="M370.32,175.35c1.55.05,3.11.08,4.66.12a.29.29,0,0,0,0-.58c-1.55,0-3.11-.07-4.66-.12-.37,0-.37.56,0,.58Z"/><path class="cls-10" d="M296,188.14c2.92-2.63,5.85-5.24,8.59-8,1.27-1.3,2.4-3,3.93-4a6,6,0,0,1,3.09-.77c2.09-.12,4.19-.06,6.27-.09,3.79-.05,7.58-.26,11.36-.25,4.06,0,8.12.19,12.17.38,7.9.36,15.82.73,23.7-.08.37,0,.37-.62,0-.58-8.07.83-16.16.42-24.24,0-4.25-.19-8.5-.36-12.75-.35-3.79,0-7.58.22-11.38.26-2.58,0-6.18-.54-8.51.93-1.45.91-2.53,2.51-3.68,3.72-2.82,3-5.91,5.7-8.95,8.44-.28.25.13.65.4.41Z"/><rect class="cls-18" x="216.52" y="47.7" width="136.42" height="35.35" rx="12.06"/><path class="cls-4" d="M235.29,56.14c.42-.86,1.11-.86,1.53,0l1.36,2.74a3.69,3.69,0,0,0,2.48,1.8l3,.44c.95.14,1.16.8.48,1.47L242,64.71a3.75,3.75,0,0,0-.95,2.93l.52,3c.16.94-.4,1.34-1.24.9l-2.71-1.42a3.66,3.66,0,0,0-3.07,0l-2.7,1.42c-.85.44-1.41,0-1.24-.9l.51-3a3.71,3.71,0,0,0-1-2.93L228,62.59c-.69-.67-.47-1.33.47-1.47l3-.44a3.69,3.69,0,0,0,2.49-1.8Z"/><path class="cls-4" d="M259.42,56.14c.42-.86,1.11-.86,1.53,0l1.35,2.74a3.69,3.69,0,0,0,2.49,1.8l3,.44c.94.14,1.16.8.47,1.47l-2.18,2.12a3.75,3.75,0,0,0-1,2.93l.52,3c.16.94-.4,1.34-1.25.9l-2.7-1.42a3.66,3.66,0,0,0-3.07,0L256,71.55c-.85.44-1.41,0-1.25-.9l.52-3a3.75,3.75,0,0,0-.95-2.93l-2.19-2.12c-.68-.67-.47-1.33.48-1.47l3-.44a3.73,3.73,0,0,0,2.49-1.8Z"/><path class="cls-4" d="M283.54,56.14c.43-.86,1.12-.86,1.54,0l1.35,2.74a3.69,3.69,0,0,0,2.49,1.8l3,.44c.94.14,1.16.8.47,1.47l-2.18,2.12a3.71,3.71,0,0,0-1,2.93l.51,3c.16.94-.4,1.34-1.24.9l-2.7-1.42a3.68,3.68,0,0,0-3.08,0l-2.7,1.42c-.84.44-1.4,0-1.24-.9l.52-3a3.72,3.72,0,0,0-1-2.93l-2.18-2.12c-.68-.67-.47-1.33.48-1.47l3-.44a3.69,3.69,0,0,0,2.49-1.8Z"/><path class="cls-4" d="M307.67,56.14c.42-.86,1.12-.86,1.54,0l1.35,2.74a3.69,3.69,0,0,0,2.48,1.8l3,.44c.95.14,1.16.8.48,1.47l-2.19,2.12a3.75,3.75,0,0,0-1,2.93l.52,3c.16.94-.4,1.34-1.24.9L310,70.13a3.68,3.68,0,0,0-3.08,0l-2.7,1.42c-.84.44-1.4,0-1.24-.9l.51-3a3.71,3.71,0,0,0-1-2.93l-2.18-2.12c-.69-.67-.47-1.33.47-1.47l3-.44a3.69,3.69,0,0,0,2.49-1.8Z"/><path class="cls-4" d="M331.8,56.14c.42-.86,1.11-.86,1.53,0l1.35,2.74a3.73,3.73,0,0,0,2.49,1.8l3,.44c.95.14,1.16.8.48,1.47l-2.19,2.12a3.75,3.75,0,0,0-1,2.93l.52,3c.16.94-.4,1.34-1.25.9l-2.7-1.42a3.66,3.66,0,0,0-3.07,0l-2.7,1.42c-.85.44-1.41,0-1.25-.9l.52-3a3.75,3.75,0,0,0-1-2.93l-2.18-2.12c-.69-.67-.47-1.33.47-1.47l3-.44a3.73,3.73,0,0,0,2.49-1.8Z"/><path class="cls-10" d="M276.88,81.28c1.9,0,3.8-.19,5.71-.21.37,0,.37-.59,0-.58-1.91,0-3.81.19-5.71.21a.29.29,0,0,0,0,.58Z"/><path class="cls-10" d="M285.24,81.07c6.81-.16,13.62.15,20.43,0,3.39-.06,6.76-.38,10.15-.54,3.57-.18,7.14-.12,10.7,0,3.4.09,6.81.22,10.21.27a30.78,30.78,0,0,0,7-.35c3.78-.82,5.39-3.88,5.64-7.52,0-.37-.55-.37-.58,0a8,8,0,0,1-2.11,5.45c-1.37,1.32-3.43,1.67-5.24,1.82a79.54,79.54,0,0,1-8.17,0c-3.21-.08-6.42-.2-9.63-.26-6.4-.11-12.76.56-19.16.64s-12.86-.2-19.29-.05a.29.29,0,0,0,0,.58Z"/><rect class="cls-19" x="11.43" y="131.58" width="71.77" height="38.15" rx="12.06"/><text class="cls-20" transform="translate(24.98 156.11)">24/7</text><path class="cls-10" d="M52.79,167.65c8.26-2,17.46,2,25-3,.3-.21,0-.71-.3-.5-7.43,5-16.66,1-24.84,3a.29.29,0,0,0,.15.56Z"/><path class="cls-10" d="M80.51,146.27c.13,1.24.07,2.49.24,3.73a28,28,0,0,1,.39,4.29c0,2.75-.26,5.68-1.86,8-.21.31.3.6.5.29a13.32,13.32,0,0,0,1.9-7,20,20,0,0,0-.07-3.79c-.26-1.87-.32-3.71-.52-5.58,0-.37-.61-.37-.58,0Z"/></svg>