<svg width="23" height="23" viewBox="0 0 23 23" fill="none" xmlns="http://www.w3.org/2000/svg">
<g clip-path="url(#clip0_49_432)">
<path d="M3.71177 6.3448C4.0582 6.77483 4.35515 7.14048 4.64427 7.50871C4.66511 7.53446 4.64688 7.58854 4.64688 7.74304C3.21426 8.03144 1.7582 8.32241 0.119812 8.65202C0.382892 7.06066 0.62774 5.5723 0.901239 3.91399C1.32581 4.22557 1.6488 4.4599 2.03431 4.74315C6.10033 0.159628 11.0077 -1.36478 16.7486 1.33383C20.4317 3.06424 22.4035 6.16456 23 10.1635C20.9683 10.4236 20.9813 10.421 20.4369 8.75759C19.1866 4.944 16.4464 2.75524 12.5185 2.27886C8.83272 1.83081 5.88414 3.36294 3.71177 6.3448Z" fill="#0B3B71"/>
<path d="M0 12.8802C1.54723 12.427 2.20883 12.8081 2.64122 14.2758C3.7222 17.953 6.38426 20.1366 10.1768 20.6696C13.9589 21.2 17.0481 19.7992 19.3455 16.6243C19.171 16.4131 19.0199 16.2174 18.8558 16.0346C18.6865 15.8466 18.5042 15.6663 18.1994 15.3496C19.8378 14.9968 21.3199 14.6775 22.9271 14.3325C22.651 15.9496 22.3931 17.4457 22.1118 19.0834C21.695 18.7692 21.3694 18.522 20.9787 18.2259C17.1497 22.7193 12.3856 24.2334 6.82967 21.9494C2.86523 20.3168 0.679841 17.1084 0 12.8802Z" fill="#0B3B71"/>
<path d="M8.17893 12.7875C9.08538 12.5531 9.71052 12.5016 9.98923 13.614C10.2393 14.6183 12.1434 14.9273 12.8024 14.1162C13.3311 13.4673 13.2348 12.79 12.4091 12.4501C11.7787 12.1901 11.0702 12.118 10.4112 11.9171C9.26511 11.5669 8.37689 10.9592 8.2727 9.63823C8.16851 8.32497 8.75718 7.44432 9.93974 6.86494C10.2601 6.70786 10.4399 6.29586 10.7342 6.06154C10.9712 5.87356 11.276 5.68043 11.5599 5.66498C11.7943 5.65211 12.0704 5.86583 12.2762 6.03836C12.6252 6.33449 12.9326 6.67439 13.2582 6.99884C13.701 7.44174 14.2506 7.83057 14.5423 8.35587C14.7038 8.64427 14.4303 9.16957 14.3522 9.58673C13.8651 9.43737 13.0941 9.42708 12.9404 9.1155C12.4742 8.17047 11.7188 8.19364 10.9712 8.37132C10.6144 8.4563 10.1898 8.92237 10.1169 9.2803C10.0674 9.52493 10.5128 10.0296 10.841 10.1558C11.6406 10.4597 12.5211 10.5524 13.3259 10.8382C14.4121 11.2244 14.9539 12.0304 14.9539 13.2072C14.9539 14.4071 14.4512 15.2904 13.3546 15.7668C12.7893 16.0114 12.2007 16.1015 12.245 16.9281C12.2528 17.0543 11.7266 17.3298 11.4583 17.3169C11.2031 17.304 10.9374 17.0311 10.7238 16.8251C10.4268 16.5341 10.2419 16.0629 9.89807 15.9058C8.48368 15.262 8.02264 14.5256 8.17893 12.7875Z" fill="#0B3B71"/>
</g>
<defs>
<clipPath id="clip0_49_432">
<rect width="23" height="23" fill="white"/>
</clipPath>
</defs>
</svg>
