<svg width="24" height="25" viewBox="0 0 24 25" fill="#000" xmlns="http://www.w3.org/2000/svg">
<path d="M22.3177 9.02637L22.3177 9.02641C22.5793 9.25511 22.7887 9.53498 22.9322 9.84801C23.0757 10.1611 23.1499 10.5001 23.15 10.8432V10.8432V21.6244C23.15 22.2735 22.8848 22.8952 22.4142 23.3528C21.9437 23.8103 21.3065 24.0667 20.6429 24.0667H16.7143C16.0507 24.0667 15.4134 23.8103 14.943 23.3528C14.4723 22.8952 14.2071 22.2735 14.2071 21.6244V16.2758C14.2071 16.1144 14.1412 15.9586 14.0224 15.8431C13.9035 15.7274 13.7414 15.6618 13.5714 15.6618H10.4286C10.2586 15.6618 10.0965 15.7274 9.97756 15.8431C9.85879 15.9586 9.79286 16.1144 9.79286 16.2758V21.6244C9.79286 22.2735 9.52767 22.8952 9.05704 23.3528C8.58656 23.8103 7.94932 24.0667 7.28571 24.0667H3.35714C2.69354 24.0667 2.0563 23.8103 1.58582 23.3528C1.11519 22.8952 0.85 22.2735 0.85 21.6244V10.8432C0.85 10.1498 1.15208 9.48993 1.68387 9.02637H22.3177ZM22.3177 9.02637L13.6748 1.47418L13.5761 1.58713L13.6748 1.47417C13.2145 1.07195 12.6182 0.85 12.0008 0.85C11.3834 0.85 10.7871 1.07195 10.3267 1.47417L10.42 1.58091L10.3267 1.47418L1.68402 9.02624L22.3177 9.02637ZM2.93093 10.3893L2.93098 10.3892L11.5738 2.83709C11.6903 2.7354 11.842 2.6786 12 2.6786C12.158 2.6786 12.3097 2.7354 12.4262 2.83709L21.069 10.3892L21.0691 10.3893C21.1352 10.447 21.1878 10.5173 21.2238 10.5955C21.2598 10.6737 21.2784 10.7582 21.2786 10.8436V21.6244C21.2786 21.7859 21.2126 21.9417 21.0939 22.0572C20.9749 22.1728 20.8128 22.2385 20.6429 22.2385H16.7143C16.5444 22.2385 16.3822 22.1728 16.2633 22.0572C16.1445 21.9417 16.0786 21.7859 16.0786 21.6244V16.2758C16.0786 15.6267 15.8134 15.0051 15.3428 14.5474C14.8723 14.0899 14.235 13.8336 13.5714 13.8336H10.4286C9.76497 13.8336 9.12773 14.0899 8.65724 14.5474C8.18662 15.0051 7.92143 15.6267 7.92143 16.2758V21.6244C7.92143 21.7859 7.8555 21.9417 7.73672 22.0572C7.6178 22.1728 7.45565 22.2385 7.28571 22.2385H3.35714C3.18721 22.2385 3.02505 22.1728 2.90613 22.0572C2.78736 21.9417 2.72143 21.7859 2.72143 21.6244V10.8434C2.72164 10.7581 2.74025 10.6737 2.77621 10.5955C2.8122 10.5173 2.86482 10.447 2.93093 10.3893Z" fill="#000" stroke="#0180FF" stroke-width="0.3"/>
</svg>
