<svg width="147" height="147" viewBox="0 0 147 147" fill="none" xmlns="http://www.w3.org/2000/svg">
<path d="M70.8202 36.4203C71.0645 33.1005 75.9355 33.1005 76.1798 36.4203C76.3912 39.2937 80.3629 39.8647 81.3753 37.1673C82.545 34.0508 87.2187 35.4231 86.5178 38.6773C85.9111 41.4938 89.5611 43.1607 91.2924 40.8578C93.2927 38.197 97.3905 40.8305 95.8012 43.7554C94.4256 46.2869 97.4581 48.9146 99.7681 47.1927C102.437 45.2033 105.627 48.8846 103.278 51.2432C101.245 53.2846 103.414 56.6602 106.116 55.6589C109.237 54.502 111.26 58.9329 108.342 60.5342C105.816 61.9201 106.947 65.7701 109.821 65.5705C113.142 65.3398 113.835 70.1613 110.584 70.8755C107.77 71.4937 107.77 75.5063 110.584 76.1245C113.835 76.8387 113.142 81.6602 109.821 81.4295C106.947 81.2299 105.816 85.0799 108.342 86.4658C111.26 88.0671 109.237 92.498 106.116 91.3411C103.414 90.3398 101.245 93.7154 103.278 95.7568C105.627 98.1154 102.437 101.797 99.7681 99.8073C97.4581 98.0854 94.4256 100.713 95.8012 103.245C97.3905 106.169 93.2927 108.803 91.2924 106.142C89.5611 103.839 85.9111 105.506 86.5178 108.323C87.2187 111.577 82.545 112.949 81.3753 109.833C80.3629 107.135 76.3912 107.706 76.1798 110.58C75.9355 113.9 71.0645 113.899 70.8202 110.58C70.6088 107.706 66.6371 107.135 65.6247 109.833C64.455 112.949 59.7813 111.577 60.4822 108.323C61.0889 105.506 57.4389 103.839 55.7076 106.142C53.7073 108.803 49.6095 106.169 51.1988 103.245C52.5744 100.713 49.5419 98.0854 47.2319 99.8073C44.563 101.797 41.3732 98.1154 43.7222 95.7568C45.7552 93.7154 43.5859 90.3398 40.8844 91.3411C37.7631 92.498 35.7396 88.0671 38.6579 86.4658C41.1838 85.0799 40.0533 81.2299 37.1791 81.4295C33.8583 81.6602 33.1651 76.8387 36.4164 76.1245C39.2304 75.5063 39.2304 71.4937 36.4164 70.8755C33.1651 70.1613 33.8583 65.3398 37.1791 65.5705C40.0533 65.7701 41.1838 61.9201 38.6579 60.5342C35.7396 58.9329 37.7631 54.502 40.8844 55.6589C43.5859 56.6602 45.7552 53.2846 43.7221 51.2432C41.3732 48.8846 44.563 45.2033 47.2319 47.1927C49.5419 48.9146 52.5744 46.2869 51.1988 43.7554C49.6095 40.8305 53.7073 38.197 55.7076 40.8578C57.4389 43.1607 61.0889 41.4938 60.4822 38.6773C59.7813 35.4231 64.455 34.0508 65.6247 37.1673C66.6371 39.8647 70.6088 39.2937 70.8202 36.4203Z" fill="#53BA64"/>
<path d="M72.9748 87.7718C72.2812 87.7738 71.5941 87.638 70.9533 87.3725C70.3126 87.1069 69.7309 86.7168 69.242 86.2248L62.2023 79.1849C61.2044 78.1887 60.6553 76.8617 60.6553 75.452C60.6553 74.0422 61.2044 72.7152 62.2023 71.7173C64.1963 69.7233 67.6739 69.7233 69.6679 71.7173L71.7587 73.8082L77.16 64.0878C77.6664 63.1743 78.4326 62.4315 79.3615 61.9536C80.2903 61.4757 81.3401 61.2842 82.3778 61.4033C83.4156 61.5224 84.3947 61.9468 85.1911 62.6227C85.9876 63.2985 86.5656 64.1956 86.8519 65.2001C87.0448 65.8669 87.1032 66.5653 87.0238 67.2547C86.9443 67.9442 86.7285 68.611 86.3891 69.2164L77.5894 85.0561C77.13 85.8773 76.4606 86.5615 75.6497 87.0387C74.8389 87.5159 73.9157 87.7689 72.9748 87.7718ZM65.9351 73.692C65.4634 73.692 65.0234 73.875 64.6908 74.2077C64.3582 74.5403 64.1751 74.9803 64.1751 75.452C64.1751 75.9237 64.3582 76.3636 64.6908 76.6963L71.7306 83.7362C71.9235 83.9281 72.1581 84.0727 72.4162 84.1588C72.6743 84.2449 72.9489 84.2701 73.2183 84.2324C73.4878 84.1947 73.7449 84.0952 73.9695 83.9417C74.1941 83.7881 74.3801 83.5846 74.513 83.3472L83.3127 67.5075C83.4257 67.3058 83.4975 67.0838 83.5241 66.8542C83.5507 66.6246 83.5315 66.392 83.4676 66.1699C83.4045 65.9468 83.2976 65.7386 83.1531 65.5573C83.0087 65.376 82.8296 65.2253 82.6263 65.1139C82.2174 64.8957 81.7397 64.8449 81.2941 64.9723C80.8485 65.0997 80.4698 65.3954 80.2381 65.7968L72.57 79.5967L67.1811 74.2077C67.0178 74.0437 66.8235 73.9137 66.6097 73.8252C66.3958 73.7367 66.1665 73.6914 65.9351 73.692Z" fill="white"/>
</svg>
