<svg width="119" height="121" viewBox="0 0 119 121" fill="none" xmlns="http://www.w3.org/2000/svg">
<path d="M57.8921 65.9629C52.2966 53.8249 39.0609 44.2622 33.1426 40.9981L53.1574 20.4453C59.6138 33.3581 72.9929 42.8275 78.8754 45.9481L57.8921 65.9629Z" fill="#FFF500"/>
<path d="M63.7031 63.8107C58.1076 51.6727 44.872 42.1101 38.9536 38.846L58.9685 18.2931C65.4249 31.2059 78.8039 40.6753 84.6864 43.7959L63.7031 63.8107Z" stroke="black" stroke-width="2.5"/>
<path d="M45.625 114.063C45.625 105.743 52.3698 98.9982 60.6899 98.9982H97.2762C105.596 98.9982 112.341 105.743 112.341 114.063C112.341 117.867 109.258 120.95 105.454 120.95H52.5118C48.7083 120.95 45.625 117.867 45.625 114.063Z" fill="#FFF500"/>
<path d="M50.749 108.71C50.749 100.708 57.2353 94.2222 65.2365 94.2222H102.415C110.416 94.2222 116.902 100.708 116.902 108.71C116.902 113.234 113.234 116.902 108.71 116.902H58.9415C54.4169 116.902 50.749 113.234 50.749 108.71Z" stroke="black" stroke-width="2.5"/>
<rect x="87.9912" y="36.8015" width="17.3452" height="51.4436" rx="8.67261" transform="rotate(44.6054 87.9912 36.8015)" fill="#FFF500"/>
<rect x="48.3921" y="3.01299" width="17.3452" height="51.4436" rx="8.67261" transform="rotate(44.6054 48.3921 3.01299)" fill="#FFF500"/>
<rect x="91.2071" y="32.0208" width="19.8452" height="53.9436" rx="9.92261" transform="rotate(44.6054 91.2071 32.0208)" stroke="black" stroke-width="2.5"/>
<rect x="51.6079" y="-1.76773" width="19.8452" height="53.9436" rx="9.92261" transform="rotate(44.6054 51.6079 -1.76773)" stroke="black" stroke-width="2.5"/>
<path d="M39.9104 56.1911C42.2261 54.1994 45.7953 54.8996 47.1867 57.6187C48.8331 60.8357 48.334 64.7336 45.9303 67.4321L20.1297 96.3969C16.5788 100.383 10.3302 100.332 6.84552 96.2875C3.65996 92.5903 4.07722 87.0102 7.77721 83.8279L39.9104 56.1911Z" fill="#FFF500"/>
<path d="M50.0096 46.6863L10.9374 80.5742C7.24753 83.7744 6.84176 89.3565 10.03 93.0567V93.0567C13.5199 97.1071 19.7744 97.1693 23.3442 93.189L57.4088 55.2078" stroke="black" stroke-width="2.5"/>
</svg>
