<svg width="23" height="26" viewBox="0 0 23 26" fill="none" xmlns="http://www.w3.org/2000/svg">
<path d="M22.2215 16.2785L19.9375 13.9944V10.9688C19.9349 8.8778 19.1571 6.86209 17.7544 5.31139C16.3518 3.76069 14.424 2.78516 12.3438 2.57344V0.84375H10.6562V2.57344C8.57605 2.78516 6.64824 3.76069 5.24559 5.31139C3.84295 6.86209 3.06512 8.8778 3.0625 10.9688V13.9944L0.778469 16.2785C0.620224 16.4367 0.531298 16.6512 0.53125 16.875V19.4063C0.53125 19.63 0.620145 19.8446 0.778379 20.0029C0.936612 20.1611 1.15122 20.25 1.375 20.25H7.28125V20.9056C7.2629 21.976 7.64018 23.0155 8.34082 23.825C9.04145 24.6345 10.0161 25.1569 11.0781 25.2923C11.6647 25.3504 12.2569 25.2852 12.8167 25.1007C13.3766 24.9163 13.8916 24.6167 14.3287 24.2212C14.7658 23.8258 15.1153 23.3432 15.3547 22.8046C15.5941 22.266 15.7181 21.6832 15.7188 21.0938V20.25H21.625C21.8488 20.25 22.0634 20.1611 22.2216 20.0029C22.3799 19.8446 22.4688 19.63 22.4688 19.4063V16.875C22.4687 16.6512 22.3798 16.4367 22.2215 16.2785ZM14.0312 21.0938C14.0312 21.7651 13.7646 22.4089 13.2899 22.8836C12.8152 23.3583 12.1713 23.625 11.5 23.625C10.8287 23.625 10.1848 23.3583 9.71014 22.8836C9.23543 22.4089 8.96875 21.7651 8.96875 21.0938V20.25H14.0312V21.0938ZM20.7812 18.5625H2.21875V17.2243L4.50278 14.9403C4.66103 14.7821 4.74995 14.5675 4.75 14.3438V10.9688C4.75 9.17854 5.46116 7.46165 6.72703 6.19578C7.9929 4.92991 9.70979 4.21875 11.5 4.21875C13.2902 4.21875 15.0071 4.92991 16.273 6.19578C17.5388 7.46165 18.25 9.17854 18.25 10.9688V14.3438C18.25 14.5675 18.339 14.7821 18.4972 14.9403L20.7812 17.2243V18.5625Z" fill="#0B3B71"/>
</svg>
