<svg width="123" height="123" viewBox="0 0 123 123" fill="none" xmlns="http://www.w3.org/2000/svg">
<path d="M61.5 112.75C58.7815 112.75 56.1744 111.67 54.2522 109.748C53.285 108.781 52.5311 107.64 52.0207 106.399C51.1803 104.356 53.0409 102.5 55.25 102.5H67.75C69.9591 102.5 71.8197 104.356 70.9793 106.399C70.4689 107.64 69.715 108.781 68.7478 109.748C66.8256 111.67 64.2185 112.75 61.5 112.75ZM102.5 97.375H24.5C22.2909 97.375 20.5 95.5841 20.5 93.375V89.5971C20.5 88.0821 21.356 86.697 22.7111 86.0194L28.5389 83.1056C29.894 82.428 30.75 81.043 30.75 79.5279V53.8125C30.48 46.5817 32.1129 39.4068 35.4855 33.005C37.1452 30.0698 39.4083 27.5198 42.1257 25.5233C43.972 24.1668 45.9994 23.0867 48.1437 22.312C49.9176 21.6712 51.25 20.075 51.25 18.1889V14.25C51.25 12.0409 53.0409 10.25 55.25 10.25H60.9891C64.4467 10.25 66.5551 14.6368 65.3955 17.8941C64.779 19.626 64.3682 21.4352 64.1793 23.2855C63.6846 28.1293 64.7358 33.0055 67.1821 37.2154C69.6284 41.4253 73.3443 44.753 77.7976 46.7217C80.8752 48.0822 84.1957 48.7455 87.5247 48.6874C89.914 48.6458 92.1843 50.2622 92.229 52.6515C92.2362 53.0376 92.2398 53.4247 92.2398 53.8125V79.5279C92.2398 81.043 93.0958 82.428 94.4509 83.1056L100.279 86.0194C101.634 86.697 102.49 88.0821 102.49 89.5971V97.3648C102.49 97.3704 102.494 97.375 102.5 97.375ZM87.125 41C85.1059 40.9966 83.1073 40.5956 81.2432 39.8198C79.3791 39.0441 77.6861 37.9087 76.2607 36.4787C74.8354 35.0486 73.7057 33.3518 72.9362 31.4851C72.1666 29.6184 71.7723 27.6185 71.7756 25.5994C71.779 23.5803 72.18 21.5817 72.9558 19.7176C73.7316 17.8535 74.8669 16.1604 76.297 14.7351C77.7271 13.3098 79.4239 12.1801 81.2906 11.4106C83.1572 10.641 85.1572 10.2466 87.1763 10.25C91.254 10.2568 95.162 11.8832 98.0405 14.7714C100.919 17.6595 102.532 21.5729 102.526 25.6506C102.519 29.7283 100.892 33.6363 98.0043 36.5149C95.1161 39.3935 91.2027 41.0068 87.125 41Z" fill="#FFF500" stroke="#30373F" stroke-width="2.5"/>
</svg>
