<svg width="34" height="34" viewBox="0 0 34 34" fill="#000" xmlns="http://www.w3.org/2000/svg">
<path d="M4.25 9.56251H19.3076C19.5275 10.1837 19.9345 10.7216 20.4726 11.102C21.0107 11.4823 21.6535 11.6866 22.3125 11.6866C22.9715 11.6866 23.6143 11.4823 24.1524 11.102C24.6905 10.7216 25.0975 10.1837 25.3174 9.56251H29.75C30.0318 9.56251 30.302 9.45057 30.5013 9.25131C30.7006 9.05205 30.8125 8.7818 30.8125 8.50001C30.8125 8.21821 30.7006 7.94796 30.5013 7.74871C30.302 7.54945 30.0318 7.43751 29.75 7.43751H25.3174C25.0975 6.81627 24.6905 6.27844 24.1524 5.89805C23.6143 5.51767 22.9715 5.31342 22.3125 5.31342C21.6535 5.31342 21.0107 5.51767 20.4726 5.89805C19.9345 6.27844 19.5275 6.81627 19.3076 7.43751H4.25C3.96821 7.43751 3.69796 7.54945 3.4987 7.74871C3.29944 7.94796 3.1875 8.21821 3.1875 8.50001C3.1875 8.7818 3.29944 9.05205 3.4987 9.25131C3.69796 9.45057 3.96821 9.56251 4.25 9.56251ZM29.75 24.4375H25.3174C25.0975 23.8163 24.6905 23.2784 24.1524 22.8981C23.6143 22.5177 22.9715 22.3134 22.3125 22.3134C21.6535 22.3134 21.0107 22.5177 20.4726 22.8981C19.9345 23.2784 19.5275 23.8163 19.3076 24.4375H4.25C3.96821 24.4375 3.69796 24.5494 3.4987 24.7487C3.29944 24.948 3.1875 25.2182 3.1875 25.5C3.1875 25.7818 3.29944 26.052 3.4987 26.2513C3.69796 26.4506 3.96821 26.5625 4.25 26.5625H19.3076C19.5275 27.1837 19.9345 27.7216 20.4726 28.102C21.0107 28.4823 21.6535 28.6866 22.3125 28.6866C22.9715 28.6866 23.6143 28.4823 24.1524 28.102C24.6905 27.7216 25.0975 27.1837 25.3174 26.5625H29.75C30.0318 26.5625 30.302 26.4506 30.5013 26.2513C30.7006 26.052 30.8125 25.7818 30.8125 25.5C30.8125 25.2182 30.7006 24.948 30.5013 24.7487C30.302 24.5494 30.0318 24.4375 29.75 24.4375ZM29.75 15.9375H14.6924C14.4725 15.3163 14.0655 14.7784 13.5274 14.3981C12.9893 14.0177 12.3465 13.8134 11.6875 13.8134C11.0285 13.8134 10.3857 14.0177 9.84759 14.3981C9.30947 14.7784 8.90247 15.3163 8.68262 15.9375H4.25C3.96821 15.9375 3.69796 16.0494 3.4987 16.2487C3.29944 16.448 3.1875 16.7182 3.1875 17C3.1875 17.2818 3.29944 17.552 3.4987 17.7513C3.69796 17.9506 3.96821 18.0625 4.25 18.0625H8.68262C8.90247 18.6837 9.30947 19.2216 9.84759 19.602C10.3857 19.9823 11.0285 20.1866 11.6875 20.1866C12.3465 20.1866 12.9893 19.9823 13.5274 19.602C14.0655 19.2216 14.4725 18.6837 14.6924 18.0625H29.75C30.0318 18.0625 30.302 17.9506 30.5013 17.7513C30.7006 17.552 30.8125 17.2818 30.8125 17C30.8125 16.7182 30.7006 16.448 30.5013 16.2487C30.302 16.0494 30.0318 15.9375 29.75 15.9375Z" fill="#000"/>
</svg>
