<svg width="24" height="24" viewBox="0 0 24 24" fill="none" xmlns="http://www.w3.org/2000/svg">
<path d="M21.9994 5.51975C21.985 5.29994 21.9405 5.08315 21.8673 4.87542C21.7095 4.44447 21.4486 4.05875 21.1073 3.75198C20.6277 3.27655 19.9817 3.00687 19.3065 3.00026H5.6847C5.42065 2.99628 5.15791 3.03821 4.9082 3.12417C4.25485 3.34846 3.70375 3.7999 3.35521 4.3963C3.1603 4.67883 3.03827 5.00518 3 5.34628C3.00446 5.43433 3.00446 5.52256 3 5.61062L3 19.4306C3 19.4306 3 19.4719 3 19.4885C3.00836 19.6297 3.02491 19.7704 3.04956 19.9097C3.18835 20.4411 3.47475 20.9222 3.87563 21.2975C4.21958 21.6022 4.62963 21.8228 5.07342 21.9419C5.23474 21.9697 5.39742 21.9891 5.56079 21.9997H19.3891C19.416 21.9914 19.4448 21.9914 19.4717 21.9997C19.8184 21.9913 20.1581 21.9007 20.463 21.7353C20.7486 21.5858 21.0058 21.3873 21.2229 21.1488C21.4718 20.9045 21.6688 20.6126 21.8022 20.2904C21.9356 19.9682 22.0027 19.6224 21.9994 19.2737V6.36233C21.9994 6.08147 21.9994 5.80061 21.9994 5.51975ZM10.5915 4.99933C10.5915 4.92498 10.5915 4.90846 10.6824 4.90846H14.3088C14.3666 4.90846 14.3914 4.90846 14.3914 4.98281V7.87403L13.5158 7.271L13.0449 6.94884C12.8848 6.83386 12.6927 6.77201 12.4956 6.77201C12.2985 6.77201 12.1063 6.83386 11.9463 6.94884L10.7072 7.7749L10.608 7.83272C10.608 7.83272 10.608 7.78316 10.608 7.76664C10.5915 6.86623 10.5998 5.93278 10.5915 4.99933ZM20.0912 19.1333C20.0935 19.2608 20.07 19.3875 20.0222 19.5057C19.9744 19.624 19.9033 19.7315 19.8131 19.8217C19.7229 19.9118 19.6155 19.983 19.4972 20.0307C19.379 20.0785 19.2523 20.102 19.1247 20.0997H5.89122C5.75916 20.1069 5.62708 20.0862 5.50357 20.0389C5.38006 19.9916 5.2679 19.9188 5.17438 19.8253C5.08087 19.7318 5.0081 19.6196 4.96081 19.4961C4.91353 19.3726 4.89279 19.2405 4.89994 19.1085V5.89148C4.89399 5.75901 4.91583 5.62677 4.96407 5.50325C5.01231 5.37974 5.08587 5.26769 5.18002 5.17432C5.27417 5.08094 5.38682 5.00832 5.51073 4.96111C5.63464 4.9139 5.76707 4.89315 5.89948 4.9002H8.6007C8.68331 4.9002 8.69983 4.9002 8.69983 4.99933V9.60876C8.69497 9.77838 8.73814 9.94593 8.82437 10.0921C8.9106 10.2382 9.03638 10.357 9.18721 10.4348C9.33351 10.5339 9.50615 10.5869 9.68284 10.5869C9.85954 10.5869 10.0322 10.5339 10.1785 10.4348L12.3841 8.98095C12.4132 8.95365 12.4516 8.93846 12.4915 8.93846C12.5313 8.93846 12.5697 8.95365 12.5988 8.98095L14.7879 10.4348C14.9302 10.5416 15.1004 10.6047 15.2779 10.6164C15.4553 10.6282 15.6324 10.588 15.7874 10.5009C15.9514 10.4201 16.0872 10.2918 16.1771 10.1326C16.267 9.97347 16.3068 9.79089 16.2913 9.60876V5.00759C16.2913 4.93324 16.2913 4.90846 16.3905 4.90846H19.1247C19.2523 4.90622 19.379 4.92969 19.4972 4.97747C19.6155 5.02525 19.7229 5.09636 19.8131 5.18656C19.9033 5.27675 19.9744 5.38419 20.0222 5.50246C20.07 5.62073 20.0935 5.74742 20.0912 5.87496V19.1333Z" fill="#0B3B70"/>
</svg>
