<svg width="17" height="22" viewBox="0 0 17 22" fill="none" xmlns="http://www.w3.org/2000/svg">
<path d="M3 5.99999C2.98307 6.72689 3.11376 7.44968 3.38416 8.12462C3.65457 8.79957 4.05907 9.41265 4.57321 9.92678C5.08735 10.4409 5.70043 10.8454 6.37537 11.1158C7.05032 11.3862 7.7731 11.5169 8.5 11.5C9.2269 11.5169 9.94968 11.3862 10.6246 11.1158C11.2996 10.8454 11.9127 10.4409 12.4268 9.92678C12.9409 9.41265 13.3454 8.79957 13.6158 8.12462C13.8862 7.44968 14.0169 6.72689 14 5.99999C14.0169 5.27309 13.8862 4.55031 13.6158 3.87536C13.3454 3.20042 12.9409 2.58734 12.4268 2.0732C11.9127 1.55907 11.2996 1.15456 10.6246 0.884156C9.94968 0.613749 9.2269 0.48306 8.5 0.499993C7.7731 0.48306 7.05032 0.613749 6.37537 0.884156C5.70043 1.15456 5.08735 1.55907 4.57321 2.0732C4.05907 2.58734 3.65457 3.20042 3.38416 3.87536C3.11376 4.55031 2.98307 5.27309 3 5.99999ZM11.25 5.99999C11.2677 6.36581 11.2087 6.73128 11.0767 7.07294C10.9448 7.41459 10.7428 7.72487 10.4839 7.98385C10.2249 8.24282 9.9146 8.44477 9.57295 8.57671C9.23129 8.70865 8.86582 8.76768 8.5 8.74999C8.13418 8.76768 7.76871 8.70865 7.42705 8.57671C7.0854 8.44477 6.77512 8.24282 6.51615 7.98385C6.25717 7.72487 6.05523 7.41459 5.92328 7.07294C5.79134 6.73128 5.73232 6.36581 5.75 5.99999C5.73232 5.63417 5.79134 5.2687 5.92328 4.92705C6.05523 4.58539 6.25717 4.27512 6.51615 4.01614C6.77512 3.75717 7.0854 3.55522 7.42705 3.42328C7.76871 3.29133 8.13418 3.23231 8.5 3.24999C8.86582 3.23231 9.23129 3.29133 9.57295 3.42328C9.9146 3.55522 10.2249 3.75717 10.4839 4.01614C10.7428 4.27512 10.9448 4.58539 11.0767 4.92705C11.2087 5.2687 11.2677 5.63417 11.25 5.99999ZM3 19.75C3 18.656 3.4346 17.6068 4.20818 16.8332C4.98177 16.0596 6.03098 15.625 7.125 15.625H9.875C10.969 15.625 12.0182 16.0596 12.7918 16.8332C13.5654 17.6068 14 18.656 14 19.75V21.125H16.75V19.75C16.75 18.8472 16.5722 17.9532 16.2267 17.119C15.8812 16.2849 15.3748 15.527 14.7364 14.8886C14.098 14.2502 13.3401 13.7438 12.5059 13.3983C11.6718 13.0528 10.7778 12.875 9.875 12.875H7.125C5.30164 12.875 3.55295 13.5993 2.26364 14.8886C0.974328 16.1779 0.25 17.9266 0.25 19.75V21.125H3V19.75Z" fill="#0B3B71"/>
</svg>
