<svg width="22" height="24" viewBox="0 0 22 24" fill="none" xmlns="http://www.w3.org/2000/svg">
<path d="M21.4813 14.887L19.8182 13.4651C19.8969 12.9827 19.9375 12.4901 19.9375 11.9975C19.9375 11.5049 19.8969 11.0123 19.8182 10.5299L21.4813 9.10804C21.6067 9.00065 21.6965 8.85763 21.7387 8.69798C21.7809 8.53833 21.7734 8.36962 21.7174 8.21429L21.6946 8.14827C21.2367 6.86865 20.5511 5.68242 19.6709 4.6469L19.6252 4.59358C19.5185 4.46803 19.3761 4.37778 19.217 4.33472C19.058 4.29166 18.8895 4.29781 18.734 4.35237L16.6698 5.08616C15.908 4.46155 15.0575 3.96897 14.1383 3.62366L13.7397 1.46545C13.7096 1.30306 13.6308 1.15366 13.5138 1.03711C13.3968 0.920554 13.2471 0.84236 13.0846 0.812915L13.016 0.80022C11.6932 0.561548 10.3018 0.561548 8.97893 0.80022L8.91038 0.812915C8.74787 0.84236 8.59817 0.920554 8.48116 1.03711C8.36415 1.15366 8.28537 1.30306 8.2553 1.46545L7.85413 3.63382C6.94232 3.9792 6.0932 4.47152 5.34045 5.09124L3.26096 4.35237C3.10548 4.29738 2.93695 4.291 2.77776 4.33409C2.61857 4.37717 2.47626 4.46768 2.36975 4.59358L2.32404 4.6469C1.44488 5.68316 0.75941 6.86919 0.300408 8.14827L0.277556 8.21429C0.163299 8.53167 0.257244 8.88714 0.51369 9.10804L2.19709 10.5451C2.11838 11.0225 2.08029 11.51 2.08029 11.995C2.08029 12.4825 2.11838 12.97 2.19709 13.4448L0.51369 14.8819C0.388249 14.9893 0.298469 15.1323 0.256289 15.2919C0.214109 15.4516 0.221527 15.6203 0.277556 15.7756L0.300408 15.8416C0.759979 17.1213 1.44045 18.302 2.32404 19.343L2.36975 19.3963C2.47652 19.5219 2.61884 19.6121 2.77793 19.6552C2.93703 19.6983 3.10543 19.6921 3.26096 19.6375L5.34045 18.8987C6.09709 19.5207 6.9426 20.0133 7.85413 20.3561L8.2553 22.5245C8.28537 22.6868 8.36415 22.8362 8.48116 22.9528C8.59817 23.0694 8.74787 23.1476 8.91038 23.177L8.97893 23.1897C10.3139 23.4296 11.681 23.4296 13.016 23.1897L13.0846 23.177C13.2471 23.1476 13.3968 23.0694 13.5138 22.9528C13.6308 22.8362 13.7096 22.6868 13.7397 22.5245L14.1383 20.3663C15.0571 20.0218 15.9125 19.5277 16.6698 18.9038L18.734 19.6375C18.8895 19.6925 19.058 19.6989 19.2172 19.6558C19.3764 19.6127 19.5187 19.5222 19.6252 19.3963L19.6709 19.343C20.5545 18.2995 21.235 17.1213 21.6946 15.8416L21.7174 15.7756C21.8317 15.4633 21.7377 15.1078 21.4813 14.887ZM18.0155 10.8295C18.0789 11.2129 18.1119 11.6065 18.1119 12C18.1119 12.3936 18.0789 12.7871 18.0155 13.1705L17.8479 14.1887L19.7446 15.8112C19.457 16.4736 19.0941 17.1006 18.6629 17.6799L16.3067 16.8446L15.5094 17.4996C14.9026 17.9973 14.2272 18.3883 13.4959 18.6625L12.5285 19.0256L12.0741 21.4885C11.3569 21.5698 10.633 21.5698 9.91585 21.4885L9.46135 19.0205L8.50159 18.6524C7.77795 18.3782 7.1051 17.9871 6.50334 17.492L5.70608 16.8344L3.33459 17.6774C2.90295 17.0959 2.5424 16.4688 2.25295 15.8086L4.16994 14.1709L4.0049 13.1553C3.94397 12.777 3.91096 12.386 3.91096 12C3.91096 11.6116 3.94143 11.2231 4.0049 10.8448L4.16994 9.82913L2.25295 8.19144C2.53986 7.52874 2.90295 6.90413 3.33459 6.32268L5.70608 7.16565L6.50334 6.50804C7.1051 6.01292 7.77795 5.6219 8.50159 5.34768L9.46389 4.9846L9.91839 2.51663C10.6319 2.43538 11.3606 2.43538 12.0766 2.51663L12.5311 4.97952L13.4985 5.34261C14.2272 5.61683 14.9051 6.00784 15.5119 6.5055L16.3092 7.16058L18.6655 6.32522C19.0971 6.90667 19.4577 7.53382 19.7471 8.19398L17.8504 9.81644L18.0155 10.8295ZM11 7.27737C8.53206 7.27737 6.53127 9.27816 6.53127 11.7461C6.53127 14.2141 8.53206 16.2149 11 16.2149C13.468 16.2149 15.4688 14.2141 15.4688 11.7461C15.4688 9.27816 13.468 7.27737 11 7.27737ZM13.011 13.7571C12.7472 14.0216 12.4338 14.2313 12.0886 14.3743C11.7435 14.5172 11.3736 14.5905 11 14.5899C10.2408 14.5899 9.52737 14.2928 8.98909 13.7571C8.72458 13.4933 8.51483 13.1799 8.3719 12.8347C8.22897 12.4896 8.15569 12.1197 8.15627 11.7461C8.15627 10.9869 8.45335 10.2735 8.98909 9.73519C9.52737 9.19691 10.2408 8.90237 11 8.90237C11.7592 8.90237 12.4727 9.19691 13.011 9.73519C13.2755 9.99894 13.4852 10.3124 13.6282 10.6575C13.7711 11.0026 13.8444 11.3726 13.8438 11.7461C13.8438 12.5053 13.5467 13.2188 13.011 13.7571Z" fill="#0B3B71"/>
</svg>
