<svg width="19" height="19" viewBox="0 0 19 19" fill="none" xmlns="http://www.w3.org/2000/svg">
<path d="M14.9805 12.5546C14.1604 12.5544 13.373 12.8755 12.7869 13.449L7.0742 10.2371C7.19159 9.75268 7.19159 9.24722 7.0742 8.76278L12.7851 5.55086C13.3187 6.06983 14.0195 6.38196 14.7621 6.43137C15.5048 6.48078 16.2408 6.26424 16.8384 5.82052C17.4359 5.37681 17.8561 4.73489 18.0235 4.00968C18.191 3.28447 18.0949 2.52332 17.7524 1.86251C17.4099 1.20169 16.8434 0.684355 16.1543 0.403111C15.4652 0.121867 14.6985 0.0950805 13.9914 0.327547C13.2843 0.560013 12.6831 1.03655 12.2953 1.67185C11.9075 2.30716 11.7585 3.05974 11.875 3.79487L6.02932 7.08315C5.57016 6.70059 5.01149 6.45681 4.41875 6.38035C3.82602 6.3039 3.22377 6.39794 2.68257 6.65146C2.14136 6.90498 1.68361 7.30748 1.36293 7.81181C1.04226 8.31614 0.871948 8.90141 0.871948 9.49905C0.871948 10.0967 1.04226 10.682 1.36293 11.1863C1.68361 11.6906 2.14136 12.0931 2.68257 12.3466C3.22377 12.6002 3.82602 12.6942 4.41875 12.6177C5.01149 12.5413 5.57016 12.2975 6.02932 11.9149L11.875 15.205C11.774 15.8401 11.87 16.4909 12.1503 17.0697C12.4306 17.6485 12.8816 18.1274 13.4425 18.4419C14.0034 18.7565 14.6473 18.8914 15.2873 18.8287C15.9273 18.766 16.5327 18.5085 17.0218 18.091C17.511 17.6735 17.8604 17.1161 18.0229 16.4939C18.1854 15.8718 18.1533 15.2147 17.9308 14.6113C17.7084 14.0079 17.3062 13.4873 16.7787 13.1195C16.2512 12.7518 15.6235 12.5546 14.9805 12.5546Z" fill="#0B3B71"/>
</svg>
