<svg width="128" height="121" viewBox="0 0 128 121" fill="none" xmlns="http://www.w3.org/2000/svg">
<path d="M57.8931 65.9629C52.2975 53.8249 39.0619 44.2622 33.1436 40.9982L53.1584 20.4453C59.6148 33.3581 72.9939 42.8275 78.8764 45.9481L57.8931 65.9629Z" fill="#FFF500"/>
<path d="M63.7036 63.8108C58.1081 51.6727 44.8725 42.1101 38.9541 38.846L58.9689 18.2932C65.4253 31.2059 78.8044 40.6753 84.6869 43.7959L63.7036 63.8108Z" stroke="black" stroke-width="2.5"/>
<path d="M45.626 114.063C45.626 105.743 52.3708 98.9982 60.6909 98.9982H97.2771C105.597 98.9982 112.342 105.743 112.342 114.063C112.342 117.867 109.259 120.95 105.455 120.95H52.5128C48.7093 120.95 45.626 117.867 45.626 114.063Z" fill="#FFF500"/>
<path d="M50.751 108.71C50.751 100.708 57.2372 94.2222 65.2384 94.2222H102.417C110.418 94.2222 116.904 100.708 116.904 108.71C116.904 113.234 113.236 116.902 108.712 116.902H58.9435C54.4189 116.902 50.751 113.234 50.751 108.71Z" stroke="black" stroke-width="2.5"/>
<rect x="87.9912" y="36.8015" width="17.3452" height="51.4436" rx="8.67261" transform="rotate(44.6054 87.9912 36.8015)" fill="#FFF500"/>
<rect x="48.3936" y="3.013" width="17.3452" height="51.4436" rx="8.67261" transform="rotate(44.6054 48.3936 3.013)" fill="#FFF500"/>
<rect x="91.2076" y="32.0208" width="19.8452" height="53.9436" rx="9.92261" transform="rotate(44.6054 91.2076 32.0208)" stroke="black" stroke-width="2.5"/>
<rect x="51.6079" y="-1.76773" width="19.8452" height="53.9436" rx="9.92261" transform="rotate(44.6054 51.6079 -1.76773)" stroke="black" stroke-width="2.5"/>
<path d="M39.9104 56.191C42.2261 54.1993 45.7953 54.8996 47.1867 57.6186C48.8331 60.8357 48.334 64.7336 45.9303 67.4321L20.1297 96.3969C16.5788 100.383 10.3302 100.332 6.84552 96.2874C3.65996 92.5903 4.07722 87.0102 7.77721 83.8279L39.9104 56.191Z" fill="#FFF500"/>
<path d="M50.0111 46.6862L10.9388 80.5742C7.249 83.7744 6.84323 89.3564 10.0314 93.0567V93.0567C13.5214 97.1071 19.7759 97.1692 23.3457 93.189L57.4103 55.2078" stroke="black" stroke-width="2.5"/>
<circle cx="97.501" cy="46.5" r="29.5" fill="white"/>
<path d="M99.001 25.25C101.726 25.25 104.424 25.7867 106.942 26.8295C109.459 27.8723 111.747 29.4007 113.673 31.3275C115.6 33.2544 117.129 35.5418 118.171 38.0593C119.214 40.5768 119.751 43.2751 119.751 46C119.751 48.7249 119.214 51.4232 118.171 53.9407C117.129 56.4582 115.6 58.7456 113.673 60.6725C111.747 62.5993 109.459 64.1277 106.942 65.1705C104.424 66.2133 101.726 66.75 99.001 66.75C93.4977 66.75 88.2199 64.5638 84.3285 60.6725C80.4371 56.7811 78.251 51.5032 78.251 46C78.251 40.4968 80.4371 35.2189 84.3285 31.3275C88.2199 27.4362 93.4977 25.25 99.001 25.25ZM97.1957 34.125C96.4498 34.125 95.7344 34.4213 95.207 34.9488C94.6795 35.4762 94.3832 36.1916 94.3832 36.9375V47.8125C94.3832 48.5584 94.6795 49.2738 95.207 49.8012C95.7344 50.3287 96.4498 50.625 97.1957 50.625H104.438C105.184 50.625 105.9 50.3287 106.427 49.8012C106.955 49.2738 107.251 48.5584 107.251 47.8125C107.251 47.0666 106.955 46.3512 106.427 45.8238C105.9 45.2963 105.184 45 104.438 45H100.008V36.9375C100.008 36.1916 99.7119 35.4762 99.1845 34.9488C98.657 34.4213 97.9416 34.125 97.1957 34.125Z" fill="#FFF500" stroke="black" stroke-width="2"/>
</svg>
