<svg width="62" height="79" viewBox="0 0 62 79" fill="none" xmlns="http://www.w3.org/2000/svg">
<path d="M10.3333 21.3335C10.2697 24.0648 10.7608 26.7808 11.7769 29.3169C12.7929 31.8531 14.3129 34.1568 16.2448 36.0887C18.1767 38.0206 20.4804 39.5405 23.0165 40.5566C25.5527 41.5727 28.2686 42.0638 31 42.0001C33.7314 42.0638 36.4473 41.5727 38.9835 40.5566C41.5196 39.5405 43.8233 38.0206 45.7552 36.0887C47.6871 34.1568 49.2071 31.8531 50.2231 29.3169C51.2392 26.7808 51.7303 24.0648 51.6667 21.3335C51.7303 18.6021 51.2392 15.8862 50.2231 13.35C49.2071 10.8139 47.6871 8.51015 45.7552 6.57825C43.8233 4.64634 41.5196 3.12639 38.9835 2.11031C36.4473 1.09424 33.7314 0.603167 31 0.666796C28.2686 0.603167 25.5527 1.09424 23.0165 2.11031C20.4804 3.12639 18.1767 4.64634 16.2448 6.57825C14.3129 8.51015 12.7929 10.8139 11.7769 13.35C10.7608 15.8862 10.2697 18.6021 10.3333 21.3335ZM41.3333 21.3335C41.3998 22.7081 41.178 24.0813 40.6822 25.3651C40.1864 26.6489 39.4276 27.8148 38.4545 28.7879C37.4814 29.7611 36.3155 30.5199 35.0317 31.0157C33.7479 31.5115 32.3746 31.7332 31 31.6668C29.6254 31.7332 28.2521 31.5115 26.9683 31.0157C25.6845 30.5199 24.5186 29.7611 23.5455 28.7879C22.5724 27.8148 21.8136 26.6489 21.3178 25.3651C20.822 24.0813 20.6002 22.7081 20.6667 21.3335C20.6002 19.9589 20.822 18.5856 21.3178 17.3018C21.8136 16.018 22.5724 14.8521 23.5455 13.879C24.5186 12.9059 25.6845 12.147 26.9683 11.6513C28.2521 11.1555 29.6254 10.9337 31 11.0001C32.3746 10.9337 33.7479 11.1555 35.0317 11.6513C36.3155 12.147 37.4814 12.9059 38.4545 13.879C39.4276 14.8521 40.1864 16.018 40.6822 17.3018C41.178 18.5856 41.3998 19.9589 41.3333 21.3335ZM10.3333 73.0001C10.3333 68.8893 11.9664 64.9468 14.8732 62.04C17.78 59.1332 21.7225 57.5001 25.8333 57.5001H36.1667C40.2775 57.5001 44.22 59.1332 47.1268 62.04C50.0336 64.9468 51.6667 68.8893 51.6667 73.0001V78.1668H62V73.0001C62 69.6077 61.3318 66.2484 60.0336 63.1141C58.7353 59.9799 56.8324 57.1321 54.4336 54.7332C52.0347 52.3344 49.1869 50.4315 46.0527 49.1332C42.9184 47.835 39.5591 47.1668 36.1667 47.1668H25.8333C18.9819 47.1668 12.4111 49.8885 7.56641 54.7332C2.72172 59.5779 0 66.1487 0 73.0001V78.1668H10.3333V73.0001Z" fill="#0180FF"/>
</svg>
