<svg width="19" height="20" viewBox="0 0 19 20" fill="#000" xmlns="http://www.w3.org/2000/svg">
<path d="M9.5 10C10.4086 10 11.2967 9.73059 12.0522 9.22582C12.8076 8.72105 13.3964 8.0036 13.7441 7.16421C14.0918 6.32481 14.1827 5.40116 14.0055 4.51006C13.8282 3.61896 13.3907 2.80043 12.7483 2.15798C12.1058 1.51553 11.2873 1.07802 10.3962 0.90077C9.5051 0.723519 8.58145 0.81449 7.74205 1.16218C6.90265 1.50987 6.1852 2.09866 5.68044 2.8541C5.17567 3.60954 4.90625 4.4977 4.90625 5.40625C4.90625 6.62459 5.39023 7.79303 6.25173 8.65453C7.11322 9.51602 8.28166 10 9.5 10ZM9.5 11.3125C6.6527 11.3125 0.96875 13.0713 0.96875 16.5625V19.1875H18.0312V16.5625C18.0312 13.0713 12.3473 11.3125 9.5 11.3125Z" fill="#000"/>
</svg>
