<svg width="312" height="289" viewBox="0 0 312 289" fill="none" xmlns="http://www.w3.org/2000/svg">
<path d="M145.01 277.155C219.472 277.155 279.835 216.792 279.835 142.33C279.835 67.8683 219.472 7.50516 145.01 7.50516C70.5487 7.50516 10.1855 67.8683 10.1855 142.33C10.1855 216.792 70.5487 277.155 145.01 277.155Z" fill="#F6F2E4"/>
<path d="M300.206 114.722H240.798L241.682 120.082L229.443 114.722C229.443 114.722 226.763 114.186 225.691 110.969V85.7732C225.691 83.6986 227.369 82.0206 229.443 82.0206H300.206C302.281 82.0206 303.959 83.6986 303.959 85.7732V110.969C303.959 113.044 302.281 114.722 300.206 114.722Z" fill="#0180FF"/>
<path d="M166.722 275.01L151.711 247.67C151.711 247.67 149.031 240.701 137.773 240.165H102.392C102.392 240.165 91.6702 241.237 91.6702 229.443C91.6702 229.443 92.2062 221.402 100.784 219.794C100.784 219.794 101.856 206.392 101.856 205.856C101.856 205.32 97.031 197.278 97.031 196.742C97.031 196.206 188.165 139.381 188.165 139.381L194.598 159.753C194.598 159.753 219.258 213.897 220.866 214.433C222.474 214.969 233.732 239.093 233.732 239.093V243.918C233.732 243.918 214.969 264.825 166.722 275.01Z" fill="#F2B187"/>
<path d="M232.124 244.454L199.423 213.897L191.381 149.031V136.165C191.381 136.165 202.639 141.526 208 151.711C208 151.711 235.34 194.062 248.742 227.835C248.742 227.835 240.701 239.629 232.124 244.454Z" fill="#F5C89F"/>
<path d="M185.217 221.402H96.7629C92.3242 221.402 88.7217 217.8 88.7217 213.361V41.2784C88.7217 36.8396 92.3242 33.2371 96.7629 33.2371H185.217C189.655 33.2371 193.258 36.8396 193.258 41.2784V213.361C193.258 217.8 189.655 221.402 185.217 221.402Z" fill="#322F43"/>
<path d="M141.526 203.979H122.763C122.173 203.979 121.691 203.497 121.691 202.907C121.691 202.317 122.173 201.835 122.763 201.835H141.526C142.115 201.835 142.598 202.317 142.598 202.907C142.598 203.497 142.115 203.979 141.526 203.979Z" fill="white"/>
<path d="M182.804 271.794C182.804 271.794 180.124 263.216 180.124 258.392C180.124 258.392 179.052 246.598 166.186 238.021L139.918 219.258C139.918 219.258 126.515 212.825 134.557 198.35C134.557 198.35 138.309 190.309 151.175 194.062C151.175 194.062 183.876 206.928 232.124 245.526C232.124 245.526 217.113 259.464 182.804 271.794Z" fill="#F6CBA0"/>
<path d="M171.144 151.159H154.746L148.184 159.737L141.408 151.159H63.9279C57.7093 151.159 52.6702 146.12 52.6702 139.901V97.551C52.6702 91.3324 57.7093 86.2932 63.9279 86.2932H171.144C177.363 86.2932 182.402 91.3324 182.402 97.551V139.901C182.402 146.12 177.363 151.159 171.144 151.159Z" fill="#FFCC00"/>
<path d="M142.062 217.114L154.928 198.351L147.423 195.134C147.423 195.134 138.845 193.526 135.093 199.959C135.093 199.959 131.34 207.464 135.629 212.289C135.629 212.289 139.918 216.577 142.062 217.114Z" fill="#FEDAB6"/>
<path d="M91.6005 131.415C90.6194 130.874 89.8367 130.091 89.2471 129.062C88.6574 128.033 88.3143 126.81 88.2178 125.395V125.379H92.5225V125.395C92.6083 126.231 92.8603 126.885 93.2945 127.352C93.7233 127.818 94.2862 128.049 94.9724 128.049C95.7283 128.049 96.3126 127.802 96.7254 127.309C97.1382 126.816 97.3473 126.119 97.3473 125.218V123.299C97.3473 122.398 97.1596 121.707 96.7897 121.219C96.4198 120.731 95.8945 120.49 95.2244 120.49C94.6079 120.49 94.0825 120.645 93.6483 120.962C93.2141 121.278 92.9139 121.718 92.7477 122.28H88.7271V109.152H100.993V113.296H93.0318V117.332C93.3588 117.016 93.7984 116.769 94.3613 116.587C94.9188 116.405 95.4763 116.314 96.0339 116.314C97.2186 116.314 98.2318 116.587 99.0735 117.129C99.9151 117.675 100.558 118.469 100.998 119.514C101.438 120.56 101.657 121.825 101.657 123.299V125.213C101.657 126.687 101.395 127.952 100.864 128.998C100.333 130.043 99.5666 130.842 98.5642 131.394C97.5617 131.946 96.3448 132.219 94.9188 132.219C93.6805 132.219 92.5815 131.951 91.6005 131.415Z" fill="black"/>
<path d="M118.153 112.009L113.033 131.989H108.369L113.333 113.301H109.409V116.743H105.104V109.157H118.158V112.009H118.153Z" fill="black"/>
<path d="M120.57 113.092L121.589 109.967L127.304 111.838L126.285 114.947L120.57 113.092ZM121.937 117.284L125.47 112.433L128.124 114.346L124.591 119.214L121.937 117.284ZM125.154 107.377H128.435V113.392H125.154V107.377ZM125.47 114.346L128.124 112.433L131.656 117.284L129.003 119.214L125.47 114.346ZM126.285 111.838L132 109.967L133.018 113.092L127.304 114.947L126.285 111.838Z" fill="black"/>
<path d="M134.407 113.092L135.425 109.967L141.14 111.838L140.121 114.947L134.407 113.092ZM135.774 117.284L139.306 112.433L141.96 114.346L138.427 119.214L135.774 117.284ZM138.99 107.377H142.271V113.392H138.99V107.377ZM139.306 114.346L141.96 112.433L145.493 117.284L142.839 119.214L139.306 114.346ZM140.121 111.838L145.836 109.967L146.854 113.092L141.14 114.947L140.121 111.838Z" fill="black"/>
<path opacity="0.4" d="M150.639 48.2474H131.34C130.895 48.2474 130.536 47.8883 130.536 47.4433C130.536 46.9984 130.895 46.6392 131.34 46.6392H150.639C151.084 46.6392 151.443 46.9984 151.443 47.4433C151.443 47.8883 151.084 48.2474 150.639 48.2474Z" fill="white"/>
<path d="M237.988 98.2264L239.007 95.101L244.722 96.9719L243.703 100.081L237.988 98.2264ZM239.355 102.419L242.888 97.567L245.542 99.4808L242.009 104.348L239.355 102.419ZM242.572 92.5064H245.853V98.5212H242.572V92.5064ZM242.888 99.4808L245.542 97.567L249.075 102.419L246.421 104.348L242.888 99.4808ZM243.703 96.9666L249.418 95.0956L250.436 98.221L244.722 100.076L243.703 96.9666Z" fill="white"/>
<path d="M251.825 98.2264L252.843 95.101L258.558 96.972L257.539 100.081L251.825 98.2264ZM253.192 102.419L256.725 97.567L259.378 99.4808L255.845 104.348L253.192 102.419ZM256.408 92.5064H259.689V98.5212H256.408V92.5064ZM256.725 99.4808L259.378 97.567L262.911 102.419L260.257 104.348L256.725 99.4808ZM257.539 96.9666L263.254 95.0957L264.273 98.221L258.558 100.076L257.539 96.9666Z" fill="white"/>
<path d="M265.661 98.2264L266.68 95.101L272.394 96.972L271.376 100.081L265.661 98.2264ZM267.028 102.419L270.561 97.567L273.214 99.4808L269.682 104.348L267.028 102.419ZM270.245 92.5064H273.525V98.5212H270.245V92.5064ZM270.561 99.4808L273.214 97.567L276.747 102.419L274.094 104.348L270.561 99.4808ZM271.376 96.9666L277.09 95.0957L278.109 98.221L272.394 100.076L271.376 96.9666Z" fill="white"/>
<path d="M279.497 98.2264L280.516 95.101L286.231 96.972L285.212 100.081L279.497 98.2264ZM280.864 102.419L284.397 97.567L287.051 99.4808L283.518 104.348L280.864 102.419ZM284.081 92.5064H287.362V98.5212H284.081V92.5064ZM284.397 99.4808L287.051 97.567L290.583 102.419L287.93 104.348L284.397 99.4808ZM285.212 96.9666L290.927 95.0957L291.945 98.221L286.231 100.076L285.212 96.9666Z" fill="white"/>
</svg>
