<svg width="60" height="60" viewBox="0 0 60 60" fill="none" xmlns="http://www.w3.org/2000/svg">
<g clip-path="url(#clip0_19_264)">
<path d="M57.2814 30C57.2814 45.0665 45.0666 57.2814 30 57.2814C14.9335 57.2814 2.71863 45.0665 2.71863 30C2.71863 14.9335 14.9335 2.7186 30 2.7186C45.0666 2.7186 57.2814 14.9335 57.2814 30Z" fill="#CD0124"/>
<path d="M30 60C13.4565 60 0 46.5401 0 30C0 13.4565 13.4565 0 30 0C46.5401 0 60 13.4565 60 30C60 46.5401 46.5401 60 30 60ZM30 5.43718C16.4548 5.43718 5.43718 16.4548 5.43718 30C5.43718 43.5452 16.4548 54.5628 30 54.5628C43.5452 54.5628 54.5628 43.5452 54.5628 30C54.5628 16.4548 43.5452 5.43718 30 5.43718Z" fill="#224270"/>
<path d="M30.017 43.0438C27.7282 43.0438 26.1932 41.5054 26.1932 39.5952C26.1932 37.6066 27.7316 36.0716 30.017 36.0716C32.2649 36.0716 33.8032 37.61 33.8032 39.5952C33.8032 41.5054 32.2683 43.0438 30.017 43.0438ZM26.4559 15.4861H33.3905L32.6401 33.4451H27.2063L26.4559 15.4861Z" fill="white"/>
</g>
<defs>
<clipPath id="clip0_19_264">
<rect width="60" height="60" fill="white"/>
</clipPath>
</defs>
</svg>
