<svg width="30" height="30" viewBox="0 0 30 30" fill="none" xmlns="http://www.w3.org/2000/svg">
<path d="M29.4719 5.63397L29.4002 5.02392H25.8117C25.9911 3.80383 26.0987 2.54785 26.1705 1.25598C26.2064 0.574163 25.6681 0 25.0581 0H4.49587C3.84993 0 3.34754 0.574163 3.38342 1.25598C3.41931 2.54785 3.56285 3.80383 3.74228 5.02392H0.153759L0.046104 5.63397C0.0102188 5.77751 -0.384518 9.4378 1.9839 12.7392C3.52697 14.8923 5.93127 16.3636 9.05328 17.1172C10.0581 18.122 11.1705 18.8756 12.3547 19.3421C12.2112 20.8134 12.0318 22.2488 11.8523 23.5766H17.7016C17.4863 22.2129 17.3069 20.8134 17.1633 19.3421C18.3475 18.9115 19.46 18.1579 20.4648 17.1172C23.5868 16.3636 25.9911 14.8923 27.5341 12.7392C29.9026 9.4378 29.4719 5.77751 29.4719 5.63397ZM3.02457 11.8421C1.5174 9.76077 1.33797 7.5 1.33797 6.42345H3.95759C4.63941 9.83254 5.8595 12.8469 7.40256 15.1077C5.53654 14.39 4.06524 13.2775 3.02457 11.8421ZM26.4935 11.8421C25.4528 13.2775 23.9815 14.39 22.1155 15.1077C23.6944 12.811 24.8786 9.83254 25.5605 6.42345H28.1801C28.1801 7.5 27.9648 9.76077 26.4935 11.8421Z" fill="#FFC54D"/>
<path d="M20.8595 28.6364H8.65857C8.29972 28.6364 8.01263 28.3493 8.01263 27.9904V23.3971C8.01263 23.0383 8.29972 22.7512 8.65857 22.7512H20.8595C21.2184 22.7512 21.5055 23.0383 21.5055 23.3971V27.9904C21.5055 28.3493 21.2184 28.6364 20.8595 28.6364Z" fill="#C19D72"/>
<path d="M6.82843 30H22.6897C23.0485 30 23.3356 29.7129 23.3356 29.3541V27.9904C23.3356 27.6316 23.0485 27.3445 22.6897 27.3445H6.82843C6.46958 27.3445 6.1825 27.6316 6.1825 27.9904V29.3541C6.1825 29.677 6.46958 30 6.82843 30Z" fill="#A88763"/>
<path d="M17.6298 26.0885H11.8882C11.637 26.0885 11.4576 25.9091 11.4576 25.6579V24.7608C11.4576 24.5096 11.637 24.3301 11.8882 24.3301H17.6298C17.881 24.3301 18.0605 24.5096 18.0605 24.7608V25.6579C18.0605 25.9091 17.8451 26.0885 17.6298 26.0885Z" fill="#FFC54D"/>
</svg>
